<svg transform="scale(1)" version="1.1" id="F60ANNvEar" xmlns="http://www.w3.org/2000/svg" xmlns:xlink="http://www.w3.org/1999/xlink" x="0px" y="0px" width="500px" height="500px" viewBox="0 0 500 500" xml:space="preserve" class="pbimage_pbimage__wrapper__image__0LEis false"><title>Authentication 1</title><style type="text/css"> .st0{fill:#000001;} .st1{fill:#FFFFFF;} .st2{fill:#FFDC32;} .st3{fill:#005596;} .st4{fill:#FFB0CC;}
 .st4{fill:#e4b0ff;}
 .st3{fill:#005596;}
 .st2{fill:#ffa8a8;}
 .st1{fill:#FFFFFF;}
 .st0{fill:#000001;}</style><g id="phone"><g id="colors"><path class="st0" d="M314.51,133.65c0,0-5.12,7.51-6.45,9.19s-2.02,3.98-1.7,6.4L333.46,355c1.13,8.57,7.79,14.91,15.63,14.89
			l88.88-0.16c2.23,0,4.27-0.83,5.89-2.19c2.71-2.28,8.22-11.29,8.06-11.24c-1.77,1.95-4.25,3.11-6.75,3.16
			c0,0-89.68,0.39-89.58,0.31c-3.51-0.27-6.93-1.8-9.61-4.3s-4.62-5.96-5.45-9.73c0,0-26.93-205.65-27.02-205.67
			C313.26,138.01,313.37,135.83,314.51,133.65z"></path><path class="st0" d="M454.74,347.2L427.2,140.04c-0.73-5.52-5.02-9.63-10.08-9.65l-96.43-0.5c-4.43-0.02-7.85,4.31-7.21,9.15
			l27.11,205.75c1.13,8.57,7.79,14.91,15.63,14.89l88.88-0.16C451.05,359.51,455.61,353.69,454.74,347.2z"></path><path class="st1" d="M445.21,354.13l-88.41,1.06c-6.33,0.08-11.72-5.04-12.61-11.95L318.3,139.69c-0.32-2.55,1.47-4.82,3.81-4.8
			l95.96,0.53c2.85,0.02,5.26,2.33,5.65,5.45l26.35,207.03C450.48,351.17,448.2,354.09,445.21,354.13z"></path><path class="st0" d="M395.45,141.51L395.45,141.51c0-1.85-1.35-3.34-3.03-3.34h-34.74c-1.67,0-3.03,1.49-3.03,3.34l0,0
			c0,1.85,1.35,3.34,3.03,3.34h34.74C394.1,144.85,395.45,143.36,395.45,141.51z"></path><ellipse class="st2" transform="matrix(0.9939 -0.1101 0.1101 0.9939 -24.4501 44.3903)" cx="389.72" cy="243.59" rx="27.75" ry="46.03"></ellipse><polygon class="st3" points="355.72,237.34 390.24,269.43 422.79,191.77 416.47,188.5 388.07,256.92 357.89,228.1 		"></polygon></g><g id="line"><path class="st0" d="M349.05,370.39c-8.02,0-14.94-6.58-16.09-15.32l-27.1-205.76c-0.32-2.45,0.33-4.92,1.8-6.78
			c1.3-1.65,6.38-9.09,6.43-9.16c0.16-0.23,0.47-0.28,0.69-0.13c0.23,0.16,0.29,0.47,0.13,0.69c-0.21,0.31-5.15,7.54-6.47,9.22
			c-1.3,1.65-1.88,3.84-1.6,6.02l27.1,205.76c1.09,8.25,7.57,14.46,15.1,14.46c0.01,0,0.02,0,0.04,0l88.88-0.16
			c2.03,0,3.95-0.72,5.57-2.07c2.62-2.2,8.06-11.08,8.11-11.17c0.15-0.24,0.45-0.31,0.69-0.17c0.24,0.14,0.31,0.45,0.17,0.69
			c-0.23,0.37-5.58,9.11-8.32,11.41c-1.8,1.51-3.95,2.31-6.21,2.31l-88.88,0.16C349.08,370.39,349.06,370.39,349.05,370.39z"></path><path class="st0" d="M356.18,360.18c-8.02,0-14.94-6.58-16.09-15.32l-27.11-205.75c-0.35-2.62,0.42-5.21,2.1-7.12
			c1.47-1.67,3.46-2.6,5.58-2.6c0.01,0,0.02,0,0.03,0l96.43,0.5c5.27,0.02,9.82,4.36,10.57,10.08l27.54,207.16
			c0.46,3.46-0.54,6.89-2.74,9.42c-1.95,2.23-4.57,3.46-7.39,3.46l-88.88,0.16C356.21,360.18,356.19,360.18,356.18,360.18z
			 M320.66,130.39c-1.83,0-3.54,0.8-4.83,2.26c-1.49,1.69-2.16,4-1.86,6.33l27.11,205.75c1.09,8.25,7.57,14.46,15.1,14.46
			c0.01,0,0.02,0,0.04,0l88.88-0.16c2.53,0,4.89-1.11,6.64-3.12c2.02-2.31,2.93-5.46,2.5-8.63c0,0,0,0,0,0L426.7,140.11
			c-0.69-5.24-4.81-9.2-9.59-9.22l-96.43-0.5C320.68,130.39,320.67,130.39,320.66,130.39z"></path><path class="st0" d="M356.65,355.69c-6.49,0-12.05-5.3-12.96-12.39L317.8,139.75c-0.18-1.46,0.25-2.89,1.18-3.94
			c0.83-0.93,1.96-1.42,3.13-1.42l95.96,0.53c3.08,0.02,5.73,2.55,6.14,5.89l26.35,207.03c0.23,1.81-0.3,3.62-1.46,4.94
			c-1.02,1.18-2.41,1.83-3.89,1.85h0l-88.41,1.06C356.75,355.69,356.7,355.69,356.65,355.69z M322.08,135.39
			c-0.89,0-1.72,0.39-2.35,1.09c-0.74,0.83-1.08,1.98-0.94,3.15l25.89,203.55c0.85,6.59,5.98,11.51,11.97,11.51
			c0.04,0,0.09,0,0.14,0l88.41-1.06c1.2-0.02,2.32-0.55,3.15-1.51c0.97-1.11,1.41-2.63,1.22-4.16l-26.35-207.03
			c-0.36-2.84-2.57-5-5.16-5.01l-95.96-0.53C322.1,135.39,322.09,135.39,322.08,135.39z M445.21,354.13L445.21,354.13L445.21,354.13
			z"></path><path class="st0" d="M411.98,149.02c-0.11,0-0.21-0.03-0.3-0.1c-0.22-0.17-0.26-0.48-0.1-0.7l6.49-8.56
			c0.17-0.22,0.48-0.26,0.7-0.1c0.22,0.17,0.26,0.48,0.1,0.7l-6.49,8.56C412.28,148.95,412.13,149.02,411.98,149.02z"></path><path class="st0" d="M419.89,148.82c-0.13,0-0.25-0.05-0.35-0.14l-8.68-8.48c-0.2-0.19-0.2-0.51-0.01-0.71
			c0.19-0.2,0.51-0.2,0.71-0.01l8.68,8.48c0.2,0.19,0.2,0.51,0.01,0.71C420.15,148.77,420.02,148.82,419.89,148.82z"></path><path class="st0" d="M392.93,289.95c-4.3,0-8.65-1.58-12.73-4.66c-9.48-7.15-16.36-21.14-18.42-37.41
			c-0.17-1.29-0.3-2.67-0.41-4.21c-0.02-0.28,0.19-0.52,0.46-0.53c0.27-0.02,0.51,0.19,0.54,0.46c0.11,1.52,0.24,2.88,0.41,4.15
			c1.99,15.77,8.9,29.85,18.03,36.74c4.69,3.54,9.75,5.02,14.61,4.27c14.86-2.28,24.4-24.41,21.26-49.31
			c-0.91-7.2-2.86-14.21-5.64-20.28c-0.11-0.25,0-0.55,0.25-0.66c0.25-0.12,0.55-0.01,0.66,0.25c2.82,6.16,4.8,13.28,5.72,20.58
			c3.21,25.44-6.71,48.06-22.1,50.43C394.7,289.88,393.82,289.95,392.93,289.95z"></path><path class="st0" d="M361.99,232.11c-0.02,0-0.03,0-0.05,0c-0.28-0.03-0.48-0.27-0.45-0.54c1.76-18.61,10.76-32.32,22.39-34.11
			c8.3-1.27,16.88,3.55,23.53,13.23c0.16,0.23,0.1,0.54-0.13,0.7c-0.23,0.16-0.54,0.1-0.7-0.13c-6.42-9.35-14.64-14.02-22.55-12.81
			c-11.17,1.72-19.83,15.06-21.55,33.21C362.46,231.92,362.24,232.11,361.99,232.11z"></path><path class="st0" d="M390.24,269.93c-0.12,0-0.25-0.05-0.34-0.13l-34.52-32.09c-0.13-0.12-0.19-0.31-0.15-0.48l2.17-9.24
			c0.04-0.17,0.17-0.31,0.34-0.37c0.17-0.05,0.36-0.01,0.49,0.12l29.65,28.32l28.12-67.75c0.05-0.13,0.16-0.23,0.29-0.28
			c0.13-0.05,0.28-0.04,0.4,0.03l6.32,3.27c0.23,0.12,0.33,0.4,0.23,0.64l-32.55,77.66c-0.06,0.15-0.2,0.26-0.36,0.29
			C390.31,269.93,390.27,269.93,390.24,269.93z M356.27,237.17l33.78,31.4L422.15,192l-5.43-2.81l-28.19,67.92
			c-0.06,0.15-0.2,0.26-0.36,0.3c-0.16,0.03-0.33-0.01-0.45-0.13l-29.55-28.22L356.27,237.17z"></path></g></g><g id="hand"><g id="color"><path class="st4" d="M459.41,307.95c-0.78,5.45-2.37,10.77-4.7,15.65c-0.54,1.15-1.34,2.5-2.3,3.24l-17.63-132.49
			c0,0,0.53-1.01,0.48-1.05c0.81-1.71,1.92-3.21,3.13-4.6c0.56-0.64,1.14-1.24,1.78-1.78c0.88-0.72,1.85-1.29,2.84-1.82
			c0.83-0.44,1.68-0.86,2.59-1.05c1.18-0.24,2.4-0.08,3.76,0.31c1.6,0.67,2.88,2.08,3.7,3.74c0.81,1.66,1.19,3.54,1.31,5.41
			c0.26,4.13-0.66,8.21-1.31,12.28c-1.13,6.99-1.48,14.12-1.25,21.82c1.05,13.76,3.67,27.31,6.22,41.24
			C460.43,281.72,461.27,294.92,459.41,307.95z"></path><path class="st4" d="M307.41,172.65c2.55,2.25,4.8,4.92,6.63,7.9c1.23,1.98,2.27,4.12,2.84,6.43c0.56,2.31,0.61,4.83-0.13,7.07
			c-0.74,2.26-2.15,4.21-4.2,5.01l2.22,16.67l-3.85-2.59c0,0-14.65-13.44-14.88-13.89c-1.4-1.98-2.62-4.13-3.6-6.4
			c-0.5-1.15-0.95-2.34-1.18-3.59c-0.29-1.51-0.26-3.07-0.15-4.61c0.26-3.6,1.03-7.25,2.91-10.22c0.73-1.15,1.61-2.18,2.62-3.03
			c0.9-0.78,1.92-1.42,3.04-1.7C302.21,169.07,304.84,170.38,307.41,172.65z"></path><path class="st4" d="M309.44,217.05c6.55,3.83,12.53,9.19,16.3,16.22c0.76,1.41,1.43,2.9,1.78,4.5c0.36,1.6,0.38,3.32-0.14,4.86
			c-0.31,0.91-0.8,1.74-1.38,2.48c-0.89,1.12-2.01,2.03-3.25,2.62c-1.16,0.56-2.41,0.86-3.67,1.01l0.45,3.23c0,0,1.33,1,1.45,1.08
			c2.26,2.12,4.46,4.35,6.28,6.93c1.82,2.59,3.25,5.56,3.78,8.79c0.36,2.17,0.27,4.53-0.76,6.42c-1.42,2.62-4.44,3.85-7.18,3.46
			l0.8,6.23c0,0,1.56,1.28,1.62,1.47c1.54,1.35,2.79,3.06,3.9,4.86c0.67,1.07,1.31,2.19,1.65,3.44s0.33,2.66-0.24,3.8
			c-0.46,0.93-1.26,1.6-2.13,2.04c-0.87,0.43-1.71,0.65-2.66,0.83l1.94,15c0,0-1.2-0.53-1.32-0.64c-2.36-1.17-4.62-2.59-7.08-4.64
			c-1.1-0.39-2.07-1.11-3.02-1.84c-4.63-3.55-9.13-7.37-12.9-12s-6.79-10.11-8.07-16.17c-0.41-1.97-0.61-4.2,0.45-5.86
			c1.36-2.13,4.1-2.36,6.46-2.37c0,0-8.13-13.17-8.17-13.21c-0.43-1.4-0.86-2.8-1.29-4.19c-0.79-2.56-1.59-5.3-1.04-8.05
			c0.5-2.63,2.35-4.9,4.68-5.71c0.72-0.25,1.47-0.37,2.19-0.61c0,0-6.15-13.04-6.25-13.41c-0.37-1.71-0.75-3.43-0.81-5.19
			c-0.06-1.76,0.21-3.57,1.03-5.07c1.05-1.9,2.94-3.14,4.92-3.57c1.98-0.43,4.05-0.13,5.98,0.54
			C305.68,214.95,307.51,215.92,309.44,217.05z"></path></g><g id="line_1_"><path class="st0" d="M453.41,326.37c-0.08,0-0.16-0.02-0.24-0.06c-0.24-0.13-0.33-0.44-0.2-0.68c5.12-9.37,7.47-21.18,6.97-35.1
			c-0.38-10.63-2.36-21.27-4.27-31.57c-0.29-1.53-0.57-3.07-0.85-4.6c-2.13-11.6-4.14-23.97-3.39-36.54
			c0.23-3.86,0.73-7.74,1.21-11.49c0.31-2.4,0.63-4.89,0.88-7.34c0.29-2.94,0.5-6.05-0.31-8.92c-0.87-3.07-2.93-5.34-5.25-5.79
			c-1.58-0.3-3.39,0.16-5.36,1.38c-2.89,1.8-5.3,4.6-6.78,7.9c-0.11,0.25-0.41,0.36-0.66,0.25c-0.25-0.11-0.36-0.41-0.25-0.66
			c1.56-3.47,4.1-6.44,7.16-8.34c2.19-1.36,4.24-1.88,6.08-1.52c2.68,0.52,5.05,3.07,6.02,6.49c0.87,3.04,0.65,6.26,0.35,9.29
			c-0.25,2.47-0.57,4.96-0.88,7.37c-0.48,3.73-0.98,7.6-1.21,11.42c-0.75,12.46,1.26,24.76,3.37,36.3c0.28,1.53,0.56,3.06,0.85,4.6
			c1.92,10.33,3.9,21.01,4.29,31.72c0.51,14.1-1.88,26.08-7.09,35.62C453.75,326.28,453.58,326.37,453.41,326.37z"></path><path class="st0" d="M307.19,200.39c-0.54,0-1.08-0.03-1.59-0.1c-2.37-0.29-4.5-1.22-6.16-2.69c-0.21-0.18-0.23-0.5-0.04-0.71
			c0.18-0.21,0.5-0.23,0.71-0.04c1.51,1.34,3.45,2.18,5.62,2.45c1.88,0.23,3.95,0.01,6.15-0.66c0.27-0.08,0.54,0.07,0.62,0.33
			s-0.07,0.54-0.33,0.62C310.43,200.13,308.76,200.39,307.19,200.39z"></path><path class="st0" d="M313.83,215.71c-0.12,0-0.23-0.04-0.33-0.12l-3.78-3.23c-2.31-1.97-4.62-3.94-6.92-5.91
			c-2.23-1.9-4.77-4.06-6.88-6.54c-2.36-2.77-3.96-5.66-4.75-8.61c-0.58-2.2-0.78-4.66-0.61-7.32c0.35-5.23,2.12-9.6,4.99-12.31
			c0.9-0.85,1.84-1.46,2.79-1.82c1.68-0.63,3.69-0.54,5.65,0.24c1.51,0.6,2.98,1.58,4.75,3.15c0.21,0.18,0.23,0.5,0.04,0.71
			s-0.5,0.23-0.71,0.04c-1.69-1.49-3.06-2.41-4.46-2.97c-1.73-0.7-3.48-0.78-4.93-0.24c-0.83,0.31-1.65,0.85-2.45,1.6
			c-2.68,2.53-4.34,6.67-4.67,11.65c-0.17,2.55,0.02,4.91,0.57,7c0.76,2.8,2.29,5.57,4.55,8.22c2.07,2.42,4.46,4.46,6.77,6.43
			c2.3,1.97,4.61,3.94,6.92,5.91l3.78,3.23c0.21,0.18,0.23,0.5,0.05,0.71C314.11,215.65,313.97,215.71,313.83,215.71z"></path><path class="st0" d="M305.59,196.58c-0.1,0-0.19-0.03-0.28-0.08c-2.2-1.46-3.87-3.39-4.85-5.56c-1.13-2.52-1.31-5.32-0.48-7.66
			c0.92-2.61,3.13-4.53,5.49-4.78c2.53-0.28,4.86,1.23,7.04,2.79c0.13,0.09,0.21,0.24,0.21,0.4c0.06,2.7,0.04,5.82-0.91,8.68
			c-1.09,3.34-3.26,5.54-6.12,6.21C305.66,196.58,305.63,196.58,305.59,196.58z M306.07,179.46c-0.16,0-0.33,0.01-0.49,0.03
			c-1.99,0.21-3.85,1.87-4.65,4.12c-0.75,2.1-0.58,4.63,0.44,6.92c0.87,1.94,2.36,3.67,4.31,5.02c3.23-0.86,4.63-3.8,5.19-5.5
			c0.87-2.62,0.91-5.54,0.86-8.09C309.92,180.66,308.01,179.46,306.07,179.46z"></path><path class="st0" d="M298.59,240.82c-0.17,0-0.34-0.09-0.43-0.24c-2.12-3.56-3.91-7.38-5.32-11.34c-0.69-1.93-1.41-4.24-1.51-6.67
			c-0.1-2.61,0.57-4.97,1.89-6.62c1.43-1.79,3.72-2.84,6.28-2.88c2.55-0.02,4.97,0.93,6.58,1.65c3.22,1.44,6.25,3.36,9.01,5.73
			c0.21,0.18,0.23,0.5,0.05,0.71c-0.18,0.21-0.49,0.23-0.71,0.05c-2.68-2.3-5.63-4.17-8.77-5.57c-1.52-0.68-3.83-1.61-6.16-1.57
			c-2.26,0.03-4.27,0.94-5.51,2.5c-1.17,1.47-1.77,3.58-1.67,5.96c0.09,2.29,0.79,4.51,1.45,6.37c1.39,3.9,3.15,7.66,5.24,11.16
			c0.14,0.24,0.06,0.54-0.17,0.69C298.76,240.8,298.68,240.82,298.59,240.82z"></path><path class="st0" d="M319.4,244c-0.11,0-0.23,0-0.34-0.01c-1.66-0.1-3.37-0.89-5.07-2.34c-0.92-0.78-1.76-1.66-2.58-2.52
			c-0.45-0.47-0.9-0.94-1.36-1.39c0,0,0,0,0,0c-2.29-2.26-2.51-5.58-1.7-7.86c0.93-2.58,3.45-4.3,5.88-4
			c0.63,0.07,1.29,0.28,2.1,0.65c3.5,1.62,6.38,4.95,7.71,8.89c0.53,1.6,0.96,3.92-0.02,5.87C323.18,242.94,321.36,244,319.4,244z
			 M310.75,237.02c0.47,0.46,0.92,0.94,1.38,1.42c0.8,0.84,1.63,1.7,2.5,2.45c1.54,1.3,3.05,2.01,4.49,2.1
			c1.43,0.09,3.19-0.54,4-2.16c0.83-1.65,0.44-3.69-0.04-5.11c-1.23-3.68-3.92-6.78-7.18-8.29c-0.7-0.32-1.28-0.5-1.8-0.57
			c-1.98-0.24-4.05,1.19-4.82,3.34C308.59,232.19,308.77,235.07,310.75,237.02L310.75,237.02z"></path><path class="st0" d="M302.09,272.47c-0.16,0-0.33-0.08-0.42-0.23c-2.87-4.47-5.84-9.09-8.13-14.1c-0.98-2.15-2.12-5.01-2.25-8.02
			c-0.14-3.16,0.98-6.13,2.92-7.75c1.28-1.08,2.95-1.67,4.83-1.72c1.46-0.03,2.96,0.22,4.91,0.84c5.7,1.78,11.01,5.11,15.34,9.61
			c0.19,0.2,0.19,0.52-0.01,0.71c-0.2,0.19-0.52,0.19-0.71-0.01c-4.22-4.38-9.38-7.62-14.92-9.35c-1.85-0.58-3.29-0.83-4.59-0.8
			c-1.15,0.03-2.82,0.31-4.21,1.48c-1.71,1.43-2.69,4.09-2.56,6.95c0.12,2.82,1.16,5.44,2.17,7.64c2.27,4.95,5.21,9.54,8.07,13.98
			c0.15,0.23,0.08,0.54-0.15,0.69C302.27,272.44,302.18,272.47,302.09,272.47z"></path><path class="st0" d="M321.33,278.86c-2.11,0-4.21-0.58-6.05-1.69c-0.24-0.14-0.31-0.45-0.17-0.69c0.14-0.24,0.45-0.31,0.69-0.17
			c2.03,1.23,4.43,1.75,6.75,1.47c0.27-0.04,0.52,0.16,0.56,0.44c0.03,0.27-0.16,0.52-0.44,0.56
			C322.22,278.83,321.77,278.86,321.33,278.86z"></path><path class="st0" d="M321.84,275.55c-0.05,0-0.1,0-0.16,0c-1.83-0.05-3.57-0.77-5.11-1.41h0c-3.12-1.29-5.28-4.49-5.91-8.79
			c-0.16-1.09-0.18-2.03-0.08-2.87c0.27-2.08,1.47-4.02,3.14-5.06c1.7-1.04,3.85-1.15,5.62-0.29c0.84,0.4,1.63,1.02,2.57,1.98
			c1.81,1.85,3.33,4.12,4.4,6.58c0.74,1.71,1.76,4.93,0.27,7.4C325.67,274.62,323.86,275.55,321.84,275.55z M316.96,273.22
			c1.46,0.6,3.11,1.28,4.75,1.33c1.33,0.02,3.12-0.47,4.02-1.98c1.26-2.08,0.33-4.96-0.33-6.48c-1.02-2.34-2.47-4.51-4.2-6.28
			c-0.86-0.88-1.56-1.43-2.29-1.78c-1.47-0.71-3.25-0.62-4.66,0.25c-1.42,0.88-2.45,2.54-2.67,4.33c-0.09,0.75-0.07,1.61,0.08,2.61
			C311.93,267.07,313,271.58,316.96,273.22L316.96,273.22z"></path><path class="st0" d="M325.44,301.55c-0.02,0-0.05,0-0.07-0.01c-8.66-1.28-17.03-4.81-24.23-10.2c-0.22-0.17-0.27-0.48-0.1-0.7
			c0.17-0.22,0.48-0.27,0.7-0.1c7.06,5.29,15.28,8.76,23.77,10.02c0.27,0.04,0.46,0.29,0.42,0.57
			C325.9,301.37,325.68,301.55,325.44,301.55z"></path><path class="st0" d="M327.43,316.6c-0.08,0-0.16-0.02-0.23-0.06c-6.24-3.28-12.11-7.4-17.42-12.24
			c-8.25-7.5-13.07-15.09-14.71-23.22c-0.41-2-0.77-5.64,1.39-7.6c0.95-0.87,2.27-1.3,3.98-1.25c2.52,0.05,4.96,0.98,7.23,1.97
			c5.62,2.48,10.99,5.69,15.96,9.54c0.22,0.17,0.26,0.48,0.09,0.7s-0.48,0.26-0.7,0.09c-4.9-3.8-10.2-6.97-15.75-9.42
			c-2.17-0.95-4.51-1.84-6.85-1.89c-1.42-0.05-2.53,0.3-3.28,0.99c-1.8,1.63-1.45,4.87-1.08,6.66c1.6,7.91,6.31,15.33,14.41,22.68
			c5.26,4.79,11.05,8.86,17.22,12.1c0.24,0.13,0.34,0.43,0.21,0.67C327.78,316.5,327.61,316.6,327.43,316.6z"></path><path class="st0" d="M325.26,298.53c-1.89,0-3.93-0.67-6.08-1.99c-0.86-0.53-1.73-1.15-2.31-2.1c-1.25-2.03-0.57-4.81,0.71-6.39
			c1.1-1.36,2.62-2.07,4.05-1.91c1.06,0.13,1.92,0.69,2.75,1.23l0.23,0.15c0,0,0,0,0,0c1.34,0.88,2.5,2.26,3.57,4.24
			c0.42,0.79,0.85,1.74,0.97,2.8c0.13,1.19-0.21,2.31-0.92,3c-0.54,0.54-1.31,0.85-2.35,0.93
			C325.68,298.52,325.47,298.53,325.26,298.53z M321.23,287.13c-1.01,0-2.06,0.57-2.87,1.56c-1.06,1.31-1.64,3.59-0.63,5.23
			c0.47,0.77,1.23,1.3,1.98,1.77c2.21,1.35,4.26,1.96,6.11,1.82c0.79-0.06,1.36-0.28,1.73-0.65c0.48-0.47,0.72-1.31,0.63-2.18
			c-0.1-0.9-0.49-1.74-0.86-2.44c-0.98-1.82-2.04-3.09-3.23-3.87l-0.23-0.15c-0.74-0.48-1.5-0.97-2.33-1.08
			C321.42,287.14,321.32,287.13,321.23,287.13z"></path></g></g><g id="computer"><g id="colors_1_"><path class="st3" d="M184.37,349.69v54.79c0,6.72-2.67,13.17-7.42,17.92l-7.79,7.79H280.3l-9.88-9.88
			c-4.62-4.62-7.22-10.9-7.22-17.43v-53.29"></path><path class="st3" d="M328.51,349.69c-2.57-0.09-5.14-0.18-7.71-0.27l-281.3-0.24l0.12-46.88c0,0,265.83,0.04,265.95,0.2
			c5.21,6.78,12.35,12.06,20.35,15.08L328.51,349.69z"></path><polygon class="st4" points="247.62,182.95 200.41,182.95 200.41,147.73 247.96,147.73 		"></polygon><path class="st2" d="M43.82,74.85c-0.49,5.86-0.51,11.76-0.07,17.63l359.86-0.17l-0.13-17.24L43.82,74.85z"></path><path class="st2" d="M292.01,198.6H106.09v23.16c0,0,182.5,0,182.84-0.24c-1.23-2.94,0.13-6.52,2.58-8.55
			c2.46-2.03,5.77-2.76,8.96-2.82c-2.11-1.25-4.26-2.54-5.88-4.38S291.9,201.42,292.01,198.6z"></path><polygon class="st0" points="263.14,349.48 184.31,349.48 184.31,354.4 263.07,370.23 		"></polygon></g><g id="line-1"><path class="st0" d="M329.56,349.86H39.5c-0.28,0-0.5-0.22-0.5-0.5V69.81c0-0.28,0.22-0.5,0.5-0.5h369.14c0.28,0,0.5,0.22,0.5,0.5
			v58.99c0,0.28-0.22,0.5-0.5,0.5s-0.5-0.22-0.5-0.5V70.31H40v278.55h289.56c0.28,0,0.5,0.22,0.5,0.5S329.83,349.86,329.56,349.86z"></path><path class="st0" d="M280.3,430.69H169.16c-0.2,0-0.38-0.12-0.46-0.31c-0.08-0.19-0.03-0.4,0.11-0.54l7.79-7.79
			c4.62-4.62,7.27-11.03,7.27-17.57v-54.79c0-0.28,0.22-0.5,0.5-0.5s0.5,0.22,0.5,0.5v54.79c0,6.8-2.76,13.46-7.57,18.27l-6.94,6.94
			h108.73l-9.03-9.03c-4.68-4.68-7.37-11.16-7.37-17.78v-53.29c0-0.28,0.22-0.5,0.5-0.5s0.5,0.22,0.5,0.5v53.29
			c0,6.36,2.58,12.58,7.07,17.08l9.88,9.88c0.14,0.14,0.19,0.36,0.11,0.54S280.5,430.69,280.3,430.69z"></path><path class="st0" d="M305.43,302.87H40.04c-0.28,0-0.5-0.22-0.5-0.5s0.22-0.5,0.5-0.5h265.39c0.28,0,0.5,0.22,0.5,0.5
			S305.7,302.87,305.43,302.87z"></path><path class="st0" d="M301.89,298.01H43.57c-0.28,0-0.5-0.22-0.5-0.5V75.02c0-0.28,0.22-0.5,0.5-0.5h359.92
			c0.28,0,0.5,0.22,0.5,0.5v52.81c0,0.28-0.22,0.5-0.5,0.5s-0.5-0.22-0.5-0.5V75.52H44.07v221.49h257.82c0.28,0,0.5,0.22,0.5,0.5
			S302.16,298.01,301.89,298.01z"></path><path class="st0" d="M402.88,92.8H44.51c-0.28,0-0.5-0.22-0.5-0.5s0.22-0.5,0.5-0.5h358.37c0.28,0,0.5,0.22,0.5,0.5
			S403.15,92.8,402.88,92.8z"></path><path class="st0" d="M288.59,222.26h-182.5c-0.28,0-0.5-0.22-0.5-0.5V198.6c0-0.28,0.22-0.5,0.5-0.5h185.92
			c0.28,0,0.5,0.22,0.5,0.5s-0.22,0.5-0.5,0.5H106.59v22.16h182c0.28,0,0.5,0.22,0.5,0.5S288.86,222.26,288.59,222.26z"></path><path class="st0" d="M247.62,183.45h-47.21c-0.28,0-0.5-0.22-0.5-0.5v-35.22c0-0.28,0.22-0.5,0.5-0.5h47.55
			c0.13,0,0.26,0.05,0.36,0.15c0.09,0.1,0.15,0.22,0.14,0.36l-0.34,35.22C248.12,183.23,247.89,183.45,247.62,183.45z
			 M200.91,182.45h46.21l0.33-34.22h-46.54V182.45z"></path><path class="st0" d="M209.54,148.1c-0.28,0-0.5-0.22-0.5-0.5v-18.95c0-0.13,0.56-11.25,15.03-11.25
			c13.49,0,14.66,11.09,14.67,11.2l0,18.81c0,0.28-0.22,0.5-0.5,0.5s-0.5-0.22-0.5-0.5v-18.76c-0.04-0.37-1.11-10.25-13.67-10.25
			c-13.48,0-14.01,9.85-14.03,10.27l0,18.93C210.04,147.88,209.81,148.1,209.54,148.1z"></path><path class="st0" d="M213.69,148.23c-0.28,0-0.5-0.22-0.5-0.5V128.6c-0.01-0.05-0.17-2.15,1.58-4.06
			c1.79-1.95,4.86-2.94,9.12-2.94c4.3,0,7.35,1,9.09,2.96c1.68,1.91,1.44,4.01,1.43,4.1l0,18.76c0,0.28-0.22,0.5-0.5,0.5
			s-0.5-0.22-0.5-0.5V128.6c0.01-0.13,0.19-1.83-1.2-3.4c-1.54-1.73-4.34-2.6-8.32-2.6c-3.97,0-6.79,0.88-8.38,2.62
			c-1.45,1.58-1.32,3.32-1.32,3.34l0,19.17C214.19,148.01,213.96,148.23,213.69,148.23z"></path><path class="st0" d="M172.73,214.68c-2.48,0-4.5-2.02-4.5-4.5s2.02-4.5,4.5-4.5s4.5,2.02,4.5,4.5S175.21,214.68,172.73,214.68z
			 M172.73,206.68c-1.93,0-3.5,1.57-3.5,3.5s1.57,3.5,3.5,3.5s3.5-1.57,3.5-3.5S174.66,206.68,172.73,206.68z"></path><path class="st0" d="M189.23,214.68c-2.48,0-4.5-2.02-4.5-4.5s2.02-4.5,4.5-4.5s4.5,2.02,4.5,4.5S191.71,214.68,189.23,214.68z
			 M189.23,206.68c-1.93,0-3.5,1.57-3.5,3.5s1.57,3.5,3.5,3.5s3.5-1.57,3.5-3.5S191.16,206.68,189.23,206.68z"></path><path class="st0" d="M205.54,214.68c-2.48,0-4.5-2.02-4.5-4.5s2.02-4.5,4.5-4.5s4.5,2.02,4.5,4.5S208.02,214.68,205.54,214.68z
			 M205.54,206.68c-1.93,0-3.5,1.57-3.5,3.5s1.57,3.5,3.5,3.5s3.5-1.57,3.5-3.5S207.47,206.68,205.54,206.68z"></path><path class="st0" d="M222.04,214.68c-2.48,0-4.5-2.02-4.5-4.5s2.02-4.5,4.5-4.5s4.5,2.02,4.5,4.5S224.52,214.68,222.04,214.68z
			 M222.04,206.68c-1.93,0-3.5,1.57-3.5,3.5s1.57,3.5,3.5,3.5s3.5-1.57,3.5-3.5S223.97,206.68,222.04,206.68z"></path><path class="st0" d="M238.35,214.68c-2.48,0-4.5-2.02-4.5-4.5s2.02-4.5,4.5-4.5s4.5,2.02,4.5,4.5S240.83,214.68,238.35,214.68z
			 M238.35,206.68c-1.93,0-3.5,1.57-3.5,3.5s1.57,3.5,3.5,3.5s3.5-1.57,3.5-3.5S240.28,206.68,238.35,206.68z"></path><path class="st0" d="M254.85,214.68c-2.48,0-4.5-2.02-4.5-4.5s2.02-4.5,4.5-4.5s4.5,2.02,4.5,4.5S257.33,214.68,254.85,214.68z
			 M254.85,206.68c-1.93,0-3.5,1.57-3.5,3.5s1.57,3.5,3.5,3.5s3.5-1.57,3.5-3.5S256.78,206.68,254.85,206.68z"></path><path class="st0" d="M271.15,214.68c-2.48,0-4.5-2.02-4.5-4.5s2.02-4.5,4.5-4.5s4.5,2.02,4.5,4.5S273.63,214.68,271.15,214.68z
			 M271.15,206.68c-1.93,0-3.5,1.57-3.5,3.5s1.57,3.5,3.5,3.5s3.5-1.57,3.5-3.5S273.08,206.68,271.15,206.68z"></path></g><g id="line-2"><path class="st4" d="M166.06,290.66c-0.02,0-0.04,0-0.06,0c-3.62-0.47-8.15-1.4-11.17-4.5c-2.8-2.88-4.04-7.34-3.69-13.28
			c0.31-5.31,1.58-10.56,2.8-15.64c1.26-5.23,2.56-10.64,2.81-16.06c0.12-2.67-0.09-9.13-4.57-11.39c-1.48-0.74-3.24-0.89-4.76-0.95
			c-8.13-0.28-16.73,1.71-27.06,6.27c-26.32,11.61-47.95,32.36-67.84,52.62c-0.19,0.2-0.51,0.2-0.71,0.01
			c-0.2-0.19-0.2-0.51-0.01-0.71c19.96-20.33,41.67-41.15,68.16-52.84c10.48-4.62,19.22-6.65,27.5-6.35
			c1.63,0.06,3.53,0.23,5.18,1.05c5,2.53,5.24,9.47,5.12,12.33c-0.25,5.52-1.56,10.97-2.83,16.25c-1.21,5.04-2.47,10.25-2.78,15.47
			c-0.33,5.64,0.82,9.85,3.41,12.52c2.81,2.88,7.13,3.76,10.59,4.2c0.27,0.04,0.47,0.29,0.43,0.56
			C166.52,290.48,166.31,290.66,166.06,290.66z"></path><path class="st4" d="M127.13,268.55c-1.38,0-2.66-0.36-3.75-1.08c-2.01-1.32-3.16-3.67-3.23-6.62c-0.07-2.88,0.9-6.01,2.73-8.8
			c3.82-5.82,10.25-8.37,14.35-5.68c4.09,2.69,4.32,9.6,0.5,15.42c-1.83,2.79-4.31,4.92-6.98,6.01
			C129.5,268.3,128.28,268.55,127.13,268.55z M133.46,246.29c-3.3,0-7.15,2.35-9.75,6.31c-1.72,2.62-2.63,5.54-2.57,8.23
			c0.06,2.61,1.05,4.68,2.78,5.81c1.73,1.14,4.02,1.22,6.44,0.24c2.49-1.01,4.8-3.01,6.52-5.63c3.51-5.36,3.42-11.65-0.22-14.04
			C135.72,246.58,134.62,246.29,133.46,246.29z"></path><path class="st4" d="M48.33,265.49c-0.08,0-0.16-0.02-0.23-0.06c-0.25-0.13-0.34-0.43-0.21-0.67
			c12.32-23.64,30.09-44.64,51.39-60.73c0.22-0.17,0.53-0.12,0.7,0.1c0.17,0.22,0.12,0.53-0.1,0.7
			c-21.18,16-38.85,36.88-51.11,60.39C48.68,265.39,48.51,265.49,48.33,265.49z"></path><path class="st4" d="M138.98,186.65c-0.17,0-0.34-0.09-0.43-0.25c-0.14-0.24-0.06-0.54,0.18-0.68c4.64-2.68,9.55-5.04,14.3-7.33
			c3.91-1.88,7.95-3.83,11.81-5.94c10.4-5.68,17.41-11.54,22.06-18.45c2.75-4.08,4.38-8.18,4.84-12.19
			c0.52-4.63-0.62-9.14-3.13-12.38c-1.74-2.24-4.28-4.15-7.78-5.81c-2.96-1.42-6.14-2.49-9.21-3.52c-1.71-0.58-3.48-1.17-5.2-1.82
			c-3.81-1.44-9.31-3.87-13.07-8.31c-3.76-4.44-4.96-10.28-3.04-14.87c0.11-0.26,0.4-0.38,0.65-0.27c0.25,0.11,0.38,0.4,0.27,0.65
			c-1.77,4.24-0.64,9.67,2.88,13.83c2.75,3.25,6.77,5.8,12.67,8.03c1.7,0.64,3.46,1.24,5.16,1.81c3.1,1.04,6.31,2.12,9.33,3.57
			c3.64,1.74,6.31,3.73,8.14,6.1c2.67,3.44,3.88,8.22,3.33,13.1c-0.48,4.17-2.16,8.42-5,12.63c-4.75,7.05-11.87,13.01-22.41,18.77
			c-3.89,2.12-7.94,4.07-11.86,5.96c-4.73,2.28-9.62,4.63-14.23,7.29C139.15,186.63,139.06,186.65,138.98,186.65z"></path><path class="st4" d="M83.88,182.1c-1.2,0-2.39-0.04-3.56-0.11c-11.38-0.69-22.05-4.84-32.89-9.4c-0.25-0.11-0.37-0.4-0.27-0.65
			c0.11-0.25,0.4-0.37,0.65-0.27c10.76,4.52,21.34,8.64,32.57,9.32c7.55,0.46,15.56-0.57,25.97-3.34
			c11.79-3.15,22.81-7.46,32.76-12.82c5.28-2.84,11.25-6.48,15.49-11.89c4.42-5.63,6.08-12.42,4.45-18.16
			c-1.24-4.36-4.46-8.51-9.58-12.34c-2.04-1.53-4.24-2.93-6.36-4.28c-2.37-1.51-4.81-3.06-7.07-4.82c-1.75-1.35-3.89-3.23-4.93-5.74
			c-1.9-4.62,0.5-9.87,3.37-13.24c0.18-0.21,0.49-0.24,0.7-0.06c0.21,0.18,0.24,0.49,0.06,0.7c-2.68,3.15-4.93,8.01-3.21,12.22
			c0.95,2.29,2.96,4.06,4.61,5.33c2.22,1.72,4.65,3.27,7,4.76c2.14,1.36,4.35,2.77,6.43,4.32c5.29,3.96,8.64,8.29,9.94,12.86
			c1.72,6.05-0.01,13.18-4.63,19.06c-4.36,5.55-10.44,9.26-15.81,12.15c-10.02,5.39-21.11,9.74-32.98,12.9
			C97.7,180.99,90.52,182.1,83.88,182.1z"></path><path class="st4" d="M71.57,156.48c-5.61,0-11.21-0.58-16.75-1.74c-0.27-0.06-0.44-0.32-0.39-0.59c0.06-0.27,0.32-0.45,0.59-0.39
			c9.43,1.97,19.04,2.24,28.57,0.81c10.45-1.57,18.24-5.19,23.14-10.75c1.36-1.54,3.53-4.58,2.79-7.63
			c-0.52-2.15-2.33-3.98-5.54-5.59c-0.51-0.25-1.02-0.5-1.54-0.74c-2.1-0.99-4.27-2.02-5.88-3.79c-2.44-2.69-3.23-6.98-2.06-11.19
			c1.05-3.81,3.35-7.04,5.61-10.03c2.21-2.92,4.86-6.18,8.43-7.98c0.25-0.13,0.55-0.03,0.67,0.22c0.12,0.25,0.03,0.55-0.22,0.67
			c-3.38,1.71-5.85,4.74-8.09,7.7c-2.21,2.91-4.44,6.05-5.45,9.69c-1.07,3.88-0.37,7.81,1.84,10.25c1.47,1.62,3.55,2.61,5.56,3.56
			c0.52,0.25,1.05,0.49,1.56,0.75c3.49,1.75,5.47,3.79,6.06,6.25c0.85,3.5-1.52,6.84-3.01,8.53c-5.06,5.74-13.05,9.46-23.74,11.07
			C79.7,156.17,75.63,156.48,71.57,156.48z"></path><path class="st4" d="M69.94,136.02c-4.9,0-10.49-4.81-13.45-12.02c-3.5-8.55-1.99-17.28,3.36-19.48
			c5.35-2.19,12.56,2.97,16.07,11.52c3.5,8.55,1.99,17.28-3.36,19.48C71.72,135.85,70.84,136.02,69.94,136.02z M62.51,105
			c-0.79,0-1.56,0.14-2.28,0.44c-4.85,1.99-6.11,10.14-2.82,18.18c3.29,8.04,9.91,12.96,14.76,10.97
			c4.85-1.99,6.11-10.14,2.82-18.18C72.19,109.58,66.99,105,62.51,105z"></path><path class="st4" d="M286.04,292.42c-0.11,0-0.22-0.04-0.31-0.11c-2.12-1.67-2.6-4.38-3.07-7.01c-0.44-2.45-0.85-4.77-2.49-6.28
			c-1.8-1.66-4.58-1.78-7.27-1.78l-9.53,0.02c-2.32,0.01-4.97-0.12-6.62-1.89c-1.2-1.29-1.5-3.1-1.62-4.34
			c-0.48-4.93,0.85-9.8,2.26-14.37l0.35-1.12c1.28-4.16,2.61-8.45,2.68-12.8c0.09-5.27-1.89-9.88-5.29-12.34
			c-5.21-3.76-12.57-2.09-17.65-0.5c-14.29,4.46-28.27,11.86-41.53,21.97c-2.37,1.8-4.82,3.79-6.31,6.43
			c-1.6,2.83-1.67,6.08-0.19,8.27c0.63,0.93,1.51,1.66,2.44,2.44c1.01,0.84,2.05,1.71,2.77,2.87c2.1,3.38,0.64,7.74-1.43,10.68
			c-0.88,1.24-1.89,2.39-2.88,3.51c-1.37,1.55-2.78,3.15-3.77,4.96c-0.13,0.24-0.43,0.33-0.68,0.2c-0.24-0.13-0.33-0.44-0.2-0.68
			c1.05-1.91,2.5-3.55,3.9-5.14c0.97-1.09,1.97-2.23,2.81-3.42c1.89-2.68,3.24-6.61,1.39-9.58c-0.63-1.02-1.57-1.8-2.56-2.63
			c-0.94-0.79-1.91-1.6-2.62-2.65c-1.69-2.51-1.64-6.17,0.15-9.33c1.59-2.81,4.12-4.87,6.57-6.73
			c13.35-10.18,27.43-17.63,41.83-22.13c5.29-1.65,12.96-3.39,18.53,0.64c3.67,2.65,5.8,7.57,5.71,13.16
			c-0.08,4.49-1.42,8.86-2.73,13.08l-0.34,1.12c-1.38,4.47-2.69,9.22-2.22,13.97c0.17,1.75,0.6,2.95,1.36,3.76
			c1.37,1.47,3.66,1.57,5.88,1.57l9.53-0.02c2.95,0,5.89,0.14,7.95,2.04c1.88,1.73,2.34,4.33,2.79,6.84
			c0.46,2.55,0.89,4.96,2.71,6.4c0.22,0.17,0.25,0.48,0.08,0.7C286.33,292.35,286.18,292.42,286.04,292.42z"></path><path class="st4" d="M286.27,278.3C286.27,278.3,286.26,278.3,286.27,278.3c-0.28,0-0.5-0.23-0.5-0.51
			c0.05-3.35-0.08-6.8-2.29-8.92c-1.16-1.11-2.69-1.64-4.31-2.21c-1.06-0.37-2.15-0.75-3.15-1.31c-3.63-2.02-6-6.57-6.04-11.58
			c-0.03-4.51,1.57-8.84,3.21-12.88l0.4-0.97c1.5-3.67,3.05-7.47,3.48-11.42c0.03-0.27,0.28-0.47,0.55-0.44
			c0.27,0.03,0.47,0.28,0.44,0.55c-0.45,4.08-2.03,7.95-3.55,11.68l-0.39,0.97c-1.6,3.95-3.16,8.17-3.13,12.5
			c0.03,4.66,2.2,8.87,5.52,10.72c0.92,0.51,1.97,0.88,2.99,1.24c1.65,0.58,3.36,1.18,4.67,2.43c2.49,2.4,2.65,6.09,2.59,9.66
			C286.76,278.08,286.54,278.3,286.27,278.3z"></path><path class="st4" d="M248.52,140.53c-0.05,0-0.1-0.01-0.16-0.02c-0.26-0.09-0.41-0.37-0.32-0.63c2.16-6.61,2.2-11.78,0.13-15.81
			c-0.66-1.27-1.55-2.45-2.42-3.59c-0.57-0.75-1.15-1.52-1.68-2.32c-4.31-6.57-4.44-15.5-0.32-22.21c0.14-0.24,0.45-0.31,0.69-0.16
			c0.24,0.14,0.31,0.45,0.16,0.69c-3.92,6.38-3.8,14.88,0.3,21.13c0.5,0.77,1.08,1.53,1.64,2.26c0.89,1.17,1.81,2.39,2.51,3.74
			c2.2,4.28,2.17,9.7-0.07,16.57C248.92,140.4,248.73,140.53,248.52,140.53z"></path><path class="st4" d="M294.8,166.64c-0.12,0-0.25,0-0.37,0c-2.88-0.06-5.4-1.01-7.1-2.67c-2.51-2.47-3-6.18-3.15-9.13
			c-0.03-0.54-0.05-1.08-0.07-1.62c-0.09-2.58-0.19-5.25-1.2-7.58c-1.18-2.69-3.38-4.63-5.72-6.69c-1.86-1.64-3.78-3.33-5.15-5.44
			c-3.07-4.75-3.14-11.66-0.21-18.94c3.27-8.15,8.88-14.89,13.39-19.85c0.19-0.2,0.5-0.22,0.71-0.03c0.2,0.19,0.22,0.5,0.03,0.71
			c-4.46,4.9-9.99,11.55-13.21,19.55c-2.81,6.98-2.76,13.55,0.13,18.02c1.29,1.99,3.16,3.64,4.97,5.23
			c2.32,2.04,4.71,4.15,5.98,7.04c1.09,2.51,1.19,5.27,1.29,7.94c0.02,0.54,0.04,1.07,0.06,1.6c0.14,2.77,0.59,6.24,2.85,8.47
			c1.51,1.48,3.79,2.33,6.42,2.39c2.45,0.06,4.85-0.5,7.18-1.05c0.27-0.06,0.54,0.1,0.6,0.37c0.06,0.27-0.1,0.54-0.37,0.6
			C299.68,166.07,297.23,166.64,294.8,166.64z"></path><path class="st4" d="M350.76,119.28c-0.15,0-0.3,0-0.45,0c-4.5-0.05-8.16-0.76-11.2-2.18c-0.86-0.4-1.69-0.86-2.49-1.31
			c-1.28-0.71-2.49-1.39-3.81-1.84c-4.4-1.48-9.26-0.11-13.44,1.42c-0.58,0.21-1.17,0.44-1.76,0.66c-3.86,1.45-7.86,2.97-12.03,2.81
			c-3.63-0.12-7.61-2.2-7.83-5.81c-0.07-1.15,0.27-2.25,0.64-3.27c1.99-5.49,5.35-10.47,9.72-14.39c0.21-0.19,0.52-0.17,0.71,0.04
			c0.18,0.21,0.17,0.52-0.04,0.71c-4.25,3.81-7.51,8.65-9.44,13.99c-0.33,0.92-0.64,1.91-0.58,2.87c0.18,2.91,3.63,4.76,6.87,4.87
			c3.98,0.14,7.88-1.33,11.65-2.75c0.59-0.22,1.18-0.44,1.76-0.66c4.34-1.59,9.4-3,14.1-1.42c1.41,0.48,2.72,1.21,3.98,1.91
			c0.79,0.44,1.6,0.9,2.42,1.28c2.91,1.36,6.44,2.04,10.78,2.08c15.15,0.16,31.02-7.26,43.52-20.32c0.19-0.2,0.51-0.21,0.71-0.02
			c0.2,0.19,0.21,0.51,0.02,0.71C382,111.78,366.06,119.28,350.76,119.28z"></path></g></g></svg>