<svg transform="scale(1)" version="1.1" id="p77FqKIKux" xmlns="http://www.w3.org/2000/svg" xmlns:xlink="http://www.w3.org/1999/xlink" x="0px" y="0px" width="500px" height="500px" viewBox="0 0 500 500" xml:space="preserve" class="pbimage_pbimage__wrapper__image__0LEis false"><title>Data Center</title><style type="text/css"> .st0{fill:#005596;} .st1{fill:#000001;} .st2{fill:#FFFFFF;} .st3{fill:#FFB0CC;} .st4{fill:#FFDC32;}
 .st4{fill:#ffa8a8;}
 .st3{fill:#e4b0ff;}
 .st2{fill:#FFFFFF;}
 .st1{fill:#000001;}
 .st0{fill:#005596;}</style><g id="computer"><g id="colors"><path class="st0" d="M131.47,301.62c0.01,1.36,0.02,2.73,0.02,4.09l-0.06,22.48l-16.5,14.55l28.18,0.39l16.84-14.79l-0.73-19.85
			L131.47,301.62z"></path><path class="st1" d="M131.6,299.85c-0.01,1.06-0.02,2.13-0.02,3.19c0,0,26.87,10.54,26.81,10.9c0.59,6.98-1.28,14.15-5.22,19.95
			l6.92-5.56l-0.49-28.49L131.6,299.85z"></path><rect class="st0" x="38.9" y="173.53" width="211" height="127"></rect><rect class="st2" x="41.9" y="176.53" width="205" height="101"></rect><rect class="st3" x="139.08" y="185.03" width="13.5" height="92.5"></rect><rect class="st3" x="118.08" y="206.03" width="13.5" height="71.5"></rect><rect class="st3" x="96.58" y="251.53" width="13.5" height="26"></rect><rect class="st3" x="75.08" y="227.03" width="13.5" height="50.5"></rect><rect class="st3" x="159.94" y="196.03" width="13.5" height="81.5"></rect><rect class="st3" x="180.94" y="212.53" width="13.5" height="65"></rect><rect class="st3" x="202.94" y="202.53" width="13.5" height="75"></rect></g><g id="line"><path class="st1" d="M41.9,278.03c-0.28,0-0.5-0.22-0.5-0.5v-101c0-0.28,0.22-0.5,0.5-0.5h205c0.28,0,0.5,0.22,0.5,0.5
			s-0.22,0.5-0.5,0.5H42.4v100.5C42.4,277.81,42.18,278.03,41.9,278.03z"></path><path class="st1" d="M38.9,301.03c-0.28,0-0.5-0.22-0.5-0.5v-127c0-0.28,0.22-0.5,0.5-0.5h211c0.28,0,0.5,0.22,0.5,0.5
			s-0.22,0.5-0.5,0.5H39.4v126.5C39.4,300.81,39.18,301.03,38.9,301.03z"></path><path class="st1" d="M142.95,343.53h-28.34c-0.21,0-0.4-0.13-0.47-0.33s-0.02-0.42,0.14-0.55l16.69-14.33v-27.41
			c0-0.28,0.22-0.5,0.5-0.5s0.5,0.22,0.5,0.5v27.64c0,0.15-0.06,0.28-0.17,0.38l-15.84,13.6h26.8l16.65-14.51
			c0.21-0.18,0.52-0.16,0.71,0.05c0.18,0.21,0.16,0.52-0.05,0.71l-16.79,14.63C143.19,343.49,143.07,343.53,142.95,343.53z"></path><path class="st1" d="M151.8,328.82h-16.71c-0.28,0-0.5-0.22-0.5-0.5s0.22-0.5,0.5-0.5h16.71c0.28,0,0.5,0.22,0.5,0.5
			S152.08,328.82,151.8,328.82z"></path><path class="st1" d="M129.79,309.69c-0.02,0-0.05,0-0.07-0.01c-0.58-0.09-1.31-0.2-1.93-0.58c-0.47-0.29-0.9-0.74-1.22-1.31
			c-0.73-1.26-0.86-2.82-0.34-4.06c0.58-1.37,1.96-2.33,3.37-2.33c0.01,0,0.02,0,0.02,0c0.28,0,0.5,0.23,0.5,0.5
			c0,0.27-0.23,0.5-0.5,0.5c-0.01,0-0.01,0-0.02,0c-1.02,0-2.02,0.7-2.45,1.71c-0.41,0.96-0.3,2.18,0.28,3.17
			c0.24,0.42,0.55,0.75,0.88,0.96c0.45,0.28,1.03,0.36,1.55,0.44c0.27,0.04,0.46,0.29,0.42,0.57
			C130.25,309.51,130.03,309.69,129.79,309.69z"></path><path class="st1" d="M351.73,408.77c-3.49,0-7.01-0.64-10.26-1.38c-12.1-2.77-23.92-7.32-35.34-11.73
			c-13.83-5.33-28.12-10.84-42.94-13.17c-15.3-2.41-31.19-1.43-46.56-0.48c-18.3,1.13-37.22,2.29-55.19-2.29
			c-16.4,2.18-33.51-0.06-48.52-6.69c-7.44-3.27-12.46-6.88-15.81-11.36c-4.37-5.84-5.4-13.22-2.64-18.79
			c2.64-5.31,8.06-8.26,13.31-11.12c5.44-2.96,10.57-5.76,12.98-10.95c0.94-2.05,1.37-4.37,1.78-6.61c0.52-2.84,1.05-5.78,2.65-8.27
			c0.15-0.23,0.46-0.3,0.69-0.15c0.23,0.15,0.3,0.46,0.15,0.69c-1.49,2.32-1.98,5.04-2.5,7.91c-0.42,2.31-0.85,4.69-1.85,6.85
			c-2.54,5.49-8.06,8.5-13.4,11.41c-5.11,2.79-10.39,5.66-12.89,10.69c-2.6,5.24-1.6,12.2,2.54,17.75
			c3.24,4.33,8.14,7.84,15.41,11.04c14.12,6.23,30.1,8.55,45.58,6.9c-2.89-0.91-5.92-2.39-7.09-5.38c-0.69-1.77-0.56-3.66,0.37-5.47
			c1.5-2.92,5.12-5.55,8.99-6.54c8.15-2.08,17.15-0.46,24.08,4.32c0.82,0.56,1.63,1.22,2,2.16c0.99,2.5-1.52,4.82-4.45,6.01
			c-5.99,2.43-12.29,4.16-18.72,5.21c17.1,3.86,35.07,2.75,52.48,1.68c15.42-0.95,31.37-1.93,46.78,0.49
			c14.92,2.35,29.27,7.88,43.14,13.22c11.39,4.39,23.17,8.93,35.2,11.68c5.89,1.34,12.7,2.36,18.45-0.34
			c6.11-2.87,7.39-10.31,7.39-16.04c0-0.28,0.22-0.5,0.5-0.5s0.5,0.22,0.5,0.5c0,8.64-2.75,14.5-7.97,16.94
			C357.77,408.29,354.76,408.77,351.73,408.77z M168.35,361.75c-2.33,0-4.66,0.28-6.92,0.86c-3.61,0.92-6.97,3.34-8.35,6.02
			c-0.81,1.57-0.92,3.13-0.33,4.65c1.2,3.07,4.81,4.38,7.83,5.19c0.31,0.08,0.62,0.16,0.92,0.24c7.2-0.97,14.25-2.81,20.93-5.51
			c1.72-0.7,4.74-2.58,3.89-4.71c-0.26-0.65-0.84-1.15-1.64-1.7C179.93,363.49,174.14,361.75,168.35,361.75z"></path><path class="st1" d="M368.52,389.85c-1.17,0-2.34-0.33-3.36-0.98c-1.77-1.12-2.96-3.17-3.1-5.35c-0.02-0.28,0.19-0.51,0.47-0.53
			c0.29-0.03,0.51,0.19,0.53,0.47c0.12,1.86,1.13,3.62,2.64,4.57c1.54,0.99,3.61,1.08,5.15,0.24c1.6-0.88,2.58-2.71,2.36-4.45
			c-0.03-0.27,0.16-0.52,0.44-0.56c0.27-0.04,0.52,0.16,0.56,0.44c0.26,2.14-0.92,4.38-2.88,5.45
			C370.47,389.62,369.5,389.85,368.52,389.85z"></path></g></g><g id="folder-1"><g id="colors_1_"><rect class="st3" x="160.34" y="92" width="104" height="70"></rect><polygon class="st1" points="212.28,131.4 208.93,134.97 161.13,92.39 		"></polygon></g><g id="line_1_"><path class="st1" d="M212.35,131.94c-0.11,0-0.21-0.03-0.3-0.1l-51.32-39.01c-0.22-0.17-0.26-0.48-0.1-0.7
			c0.17-0.22,0.48-0.26,0.7-0.1l51.02,38.78l51.24-38.86c0.22-0.17,0.53-0.12,0.7,0.1c0.17,0.22,0.12,0.53-0.1,0.7l-51.54,39.09
			C212.56,131.91,212.46,131.94,212.35,131.94z"></path><path class="st1" d="M160.88,161.99c-0.13,0-0.26-0.05-0.35-0.15c-0.19-0.2-0.19-0.51,0-0.71l37.06-36.98
			c0.2-0.19,0.51-0.2,0.71,0c0.19,0.2,0.19,0.51,0,0.71l-37.06,36.98C161.13,161.94,161.01,161.99,160.88,161.99z"></path><path class="st1" d="M263.73,161.84c-0.13,0-0.26-0.05-0.36-0.15l-38.3-39.01c-0.19-0.2-0.19-0.51,0.01-0.71
			c0.2-0.19,0.51-0.19,0.71,0.01l38.3,39.01c0.19,0.2,0.19,0.51-0.01,0.71C263.98,161.79,263.86,161.84,263.73,161.84z"></path></g></g><g id="folder-2"><g id="colors_2_"><path class="st3" d="M46.34,162l-7.78-57.42c-0.08-0.62,0.4-1.17,1.03-1.18l7.76-0.01l-1.6-9.28c-0.18-1.06,0.63-2.02,1.7-2.03
			l24-0.08c1.32,0,2.47,0.92,2.74,2.21l0.97,4.53h62.57c0.77,0,1.42,0.6,1.47,1.37l4.16,61.88L46.34,162L46.34,162z"></path><path class="st1" d="M135.3,112.82c0.35,1.68,0.71,3.38,1.51,4.9c0.8,1.52,2.11,2.85,3.78,3.27l2.6,40.15L135.3,112.82z"></path></g><path d="M142.98,162c-0.24,0-0.45-0.18-0.49-0.42l-8.44-53.15c-0.41-2.57-2.59-4.43-5.19-4.43H48.77c-0.28,0-0.5-0.22-0.5-0.5
		s0.22-0.5,0.5-0.5h80.09c3.1,0,5.69,2.22,6.17,5.27l8.44,53.15c0.04,0.27-0.14,0.53-0.42,0.57C143.03,162,143,162,142.98,162z"></path></g><g id="screen"><g id="color-1"><rect class="st0" x="316.95" y="92.01" width="144.5" height="255.5"></rect><polygon class="st1" points="317.43,102.02 425.78,102.02 425.78,123.36 444.9,123.36 444.9,179.93 444.9,347.34 438.99,347.34 
			438.99,134.49 411.31,134.49 411.31,117.36 319.22,117.36 317.16,117.36 		"></polygon><rect class="st4" x="274.95" y="106.93" width="144.5" height="255.5"></rect><polygon class="st1" points="421.9,129.28 421.9,120.82 290.9,120.82 290.9,355.53 290.9,362.41 297.04,362.41 297.04,132.29 		
			"></polygon><rect class="st2" x="295.95" y="126.93" width="144.5" height="255.5"></rect></g><g id="color-2"><path class="st4" d="M307.01,167.16l-3.71-27.33c-0.04-0.3,0.19-0.56,0.49-0.56h3.69l-0.76-4.41c-0.09-0.5,0.3-0.96,0.81-0.96
			l11.42-0.04c0.63,0,1.17,0.44,1.31,1.05l0.46,2.16h29.78c0.37,0,0.67,0.29,0.7,0.65l1.98,29.45L307.01,167.16L307.01,167.16z"></path><path class="st4" d="M307.01,212.16l-3.71-27.33c-0.04-0.3,0.19-0.56,0.49-0.56h3.69l-0.76-4.41c-0.09-0.5,0.3-0.96,0.81-0.96
			l11.42-0.04c0.63,0,1.17,0.44,1.31,1.05l0.46,2.16h29.78c0.37,0,0.67,0.29,0.7,0.65l1.98,29.45L307.01,212.16L307.01,212.16z"></path><path class="st4" d="M308.39,257.16l-3.71-27.33c-0.04-0.3,0.19-0.56,0.49-0.56h3.69l-0.76-4.41c-0.09-0.5,0.3-0.96,0.81-0.96
			l11.42-0.04c0.63,0,1.17,0.44,1.31,1.05l0.46,2.16h29.78c0.37,0,0.67,0.29,0.7,0.65l1.98,29.45h-46.17V257.16z"></path><path class="st4" d="M308.39,302.16l-3.71-27.33c-0.04-0.3,0.19-0.56,0.49-0.56h3.69l-0.76-4.41c-0.09-0.5,0.3-0.96,0.81-0.96
			l11.42-0.04c0.63,0,1.17,0.44,1.31,1.05l0.46,2.16h29.78c0.37,0,0.67,0.29,0.7,0.65l1.98,29.45h-46.17V302.16z"></path><path class="st4" d="M308.39,347.16l-3.71-27.33c-0.04-0.3,0.19-0.56,0.49-0.56h3.69l-0.76-4.41c-0.09-0.5,0.3-0.96,0.81-0.96
			l11.42-0.04c0.63,0,1.17,0.44,1.31,1.05l0.46,2.16h29.78c0.37,0,0.67,0.29,0.7,0.65l1.98,29.45h-46.17V347.16z"></path></g><g id="color-3"><path class="st4" d="M357.84,157.75L357.84,157.75c0-2.35,1.9-4.25,4.25-4.25h52c2.35,0,4.25,1.9,4.25,4.25l0,0
			c0,2.35-1.9,4.25-4.25,4.25h-52C359.74,162,357.84,160.1,357.84,157.75z"></path><path class="st4" d="M357.84,146.25L357.84,146.25c0-2.35,1.9-4.25,4.25-4.25h64c2.35,0,4.25,1.9,4.25,4.25l0,0
			c0,2.35-1.9,4.25-4.25,4.25h-64C359.74,150.5,357.84,148.6,357.84,146.25z"></path><path class="st4" d="M357.84,202.75L357.84,202.75c0-2.35,1.9-4.25,4.25-4.25h52c2.35,0,4.25,1.9,4.25,4.25l0,0
			c0,2.35-1.9,4.25-4.25,4.25h-52C359.74,207,357.84,205.1,357.84,202.75z"></path><path class="st4" d="M357.84,191.25L357.84,191.25c0-2.35,1.9-4.25,4.25-4.25h64c2.35,0,4.25,1.9,4.25,4.25l0,0
			c0,2.35-1.9,4.25-4.25,4.25h-64C359.74,195.5,357.84,193.6,357.84,191.25z"></path><path class="st4" d="M359.22,247.75L359.22,247.75c0-2.35,1.9-4.25,4.25-4.25h52c2.35,0,4.25,1.9,4.25,4.25l0,0
			c0,2.35-1.9,4.25-4.25,4.25h-52C361.12,252,359.22,250.1,359.22,247.75z"></path><path class="st4" d="M359.22,236.25L359.22,236.25c0-2.35,1.9-4.25,4.25-4.25h64c2.35,0,4.25,1.9,4.25,4.25l0,0
			c0,2.35-1.9,4.25-4.25,4.25h-64C361.12,240.5,359.22,238.6,359.22,236.25z"></path><path class="st4" d="M359.22,292.75L359.22,292.75c0-2.35,1.9-4.25,4.25-4.25h52c2.35,0,4.25,1.9,4.25,4.25l0,0
			c0,2.35-1.9,4.25-4.25,4.25h-52C361.12,297,359.22,295.1,359.22,292.75z"></path><path class="st4" d="M359.22,281.25L359.22,281.25c0-2.35,1.9-4.25,4.25-4.25h64c2.35,0,4.25,1.9,4.25,4.25l0,0
			c0,2.35-1.9,4.25-4.25,4.25h-64C361.12,285.5,359.22,283.6,359.22,281.25z"></path><path class="st4" d="M359.22,337.75L359.22,337.75c0-2.35,1.9-4.25,4.25-4.25h52c2.35,0,4.25,1.9,4.25,4.25l0,0
			c0,2.35-1.9,4.25-4.25,4.25h-52C361.12,342,359.22,340.1,359.22,337.75z"></path><path class="st4" d="M359.22,326.25L359.22,326.25c0-2.35,1.9-4.25,4.25-4.25h64c2.35,0,4.25,1.9,4.25,4.25l0,0
			c0,2.35-1.9,4.25-4.25,4.25h-64C361.12,330.5,359.22,328.6,359.22,326.25z"></path></g><g id="line_3_"><path class="st1" d="M353.18,167.67h-46.17c-0.27,0-0.48-0.21-0.5-0.47l-3.71-27.3c-0.04-0.29,0.05-0.57,0.24-0.79
			c0.19-0.21,0.46-0.34,0.75-0.34h3.1l-0.66-3.83c-0.07-0.38,0.04-0.77,0.29-1.07c0.25-0.3,0.62-0.48,1.02-0.48l11.42-0.04
			c0.87,0,1.6,0.59,1.8,1.44l0.38,1.77h29.38c0.62,0,1.15,0.49,1.2,1.11l1.98,29.46c0.01,0.14-0.04,0.27-0.13,0.38
			S353.32,167.67,353.18,167.67z M307.45,166.67h45.2l-1.94-28.92c-0.01-0.1-0.1-0.18-0.2-0.18h-29.78c-0.24,0-0.44-0.17-0.49-0.4
			l-0.46-2.16c-0.09-0.38-0.43-0.65-0.82-0.65l-11.42,0.04c-0.1,0-0.19,0.04-0.25,0.12c-0.04,0.04-0.09,0.13-0.07,0.25l0.76,4.41
			c0.02,0.15-0.02,0.29-0.11,0.41c-0.1,0.11-0.24,0.18-0.38,0.18h-3.69L307.45,166.67z"></path><path class="st1" d="M353.18,212.67h-46.17c-0.27,0-0.48-0.21-0.5-0.47l-3.71-27.3c-0.04-0.29,0.05-0.57,0.24-0.79
			c0.19-0.21,0.46-0.34,0.75-0.34h3.1l-0.66-3.83c-0.07-0.38,0.04-0.77,0.29-1.07c0.25-0.3,0.62-0.48,1.02-0.48l11.42-0.04
			c0.87,0,1.6,0.59,1.8,1.44l0.38,1.77h29.38c0.62,0,1.15,0.49,1.2,1.11l1.98,29.46c0.01,0.14-0.04,0.27-0.13,0.38
			S353.32,212.67,353.18,212.67z M307.45,211.67h45.2l-1.94-28.92c-0.01-0.1-0.1-0.18-0.2-0.18h-29.78c-0.24,0-0.44-0.17-0.49-0.4
			l-0.46-2.16c-0.09-0.38-0.43-0.65-0.82-0.65l-11.42,0.04c-0.1,0-0.19,0.04-0.25,0.12c-0.04,0.04-0.09,0.13-0.07,0.25l0.76,4.41
			c0.02,0.15-0.02,0.29-0.11,0.41c-0.1,0.11-0.24,0.18-0.38,0.18h-3.69L307.45,211.67z"></path><path class="st1" d="M354.56,257.67h-46.17c-0.27,0-0.48-0.21-0.5-0.47l-3.71-27.3c-0.04-0.29,0.05-0.57,0.24-0.79
			c0.19-0.21,0.46-0.34,0.75-0.34h3.1l-0.66-3.83c-0.07-0.38,0.04-0.77,0.29-1.07c0.25-0.3,0.62-0.47,1.02-0.47l11.42-0.04
			c0.87,0,1.6,0.59,1.8,1.44l0.38,1.77h29.38c0.62,0,1.15,0.49,1.2,1.11l1.98,29.46c0.01,0.14-0.04,0.27-0.13,0.38
			C354.83,257.62,354.7,257.67,354.56,257.67z M308.83,256.67h45.2l-1.94-28.92c-0.01-0.1-0.1-0.18-0.2-0.18H322.1
			c-0.24,0-0.44-0.17-0.49-0.4l-0.46-2.16c-0.09-0.38-0.43-0.65-0.82-0.65l-11.42,0.04c-0.13,0-0.21,0.07-0.25,0.12
			c-0.04,0.04-0.09,0.13-0.07,0.26l0.76,4.41c0.02,0.15-0.02,0.29-0.11,0.41c-0.1,0.11-0.24,0.18-0.38,0.18h-3.69L308.83,256.67z"></path><path class="st1" d="M354.56,302.67h-46.17c-0.27,0-0.48-0.21-0.5-0.47l-3.71-27.3c-0.04-0.29,0.05-0.57,0.24-0.79
			c0.19-0.21,0.46-0.34,0.75-0.34h3.1l-0.66-3.83c-0.07-0.38,0.04-0.77,0.29-1.07c0.25-0.3,0.62-0.47,1.02-0.47l11.42-0.04
			c0.87,0,1.6,0.59,1.8,1.44l0.38,1.77h29.38c0.62,0,1.15,0.49,1.2,1.11l1.98,29.46c0.01,0.14-0.04,0.27-0.13,0.38
			C354.83,302.62,354.7,302.67,354.56,302.67z M308.83,301.67h45.2l-1.94-28.92c-0.01-0.1-0.1-0.18-0.2-0.18H322.1
			c-0.24,0-0.44-0.17-0.49-0.4l-0.46-2.16c-0.09-0.38-0.43-0.65-0.82-0.65l-11.42,0.04c-0.13,0-0.21,0.07-0.25,0.12
			c-0.04,0.04-0.09,0.13-0.07,0.25l0.76,4.41c0.02,0.15-0.02,0.29-0.11,0.41c-0.1,0.11-0.24,0.18-0.38,0.18h-3.69L308.83,301.67z"></path><path class="st1" d="M354.56,347.67h-46.17c-0.27,0-0.48-0.21-0.5-0.47l-3.71-27.3c-0.04-0.29,0.05-0.57,0.24-0.79
			c0.19-0.21,0.46-0.34,0.75-0.34h3.1l-0.66-3.83c-0.07-0.38,0.04-0.77,0.29-1.07c0.25-0.3,0.62-0.47,1.02-0.47l11.42-0.04
			c0.87,0,1.6,0.59,1.8,1.44l0.38,1.77h29.38c0.62,0,1.15,0.49,1.2,1.11l1.98,29.46c0.01,0.14-0.04,0.27-0.13,0.38
			C354.83,347.62,354.7,347.67,354.56,347.67z M308.83,346.67h45.2l-1.94-28.92c-0.01-0.1-0.1-0.18-0.2-0.18H322.1
			c-0.24,0-0.44-0.17-0.49-0.4l-0.46-2.16c-0.09-0.38-0.43-0.65-0.82-0.65l-11.42,0.04c-0.13,0-0.21,0.07-0.25,0.12
			c-0.04,0.04-0.09,0.13-0.07,0.25l0.76,4.41c0.02,0.15-0.02,0.29-0.11,0.41c-0.1,0.11-0.24,0.18-0.38,0.18h-3.69L308.83,346.67z"></path><path class="st1" d="M440,382.57H296.34c-0.28,0-0.5-0.22-0.5-0.5s0.22-0.5,0.5-0.5H439.5v-32.59c0-0.28,0.22-0.5,0.5-0.5
			s0.5,0.22,0.5,0.5v33.09C440.5,382.35,440.28,382.57,440,382.57z"></path><path class="st1" d="M461.28,347.79h-15.07c-0.28,0-0.5-0.22-0.5-0.5s0.22-0.5,0.5-0.5h14.57V92.23H317.54v8.29
			c0,0.28-0.22,0.5-0.5,0.5s-0.5-0.22-0.5-0.5v-8.79c0-0.28,0.22-0.5,0.5-0.5h144.24c0.28,0,0.5,0.22,0.5,0.5v255.56
			C461.78,347.57,461.56,347.79,461.28,347.79z"></path><path class="st1" d="M289.91,363.06h-14.89c-0.28,0-0.5-0.22-0.5-0.5V107.08c0-0.28,0.22-0.5,0.5-0.5h40.84
			c0.28,0,0.5,0.22,0.5,0.5s-0.22,0.5-0.5,0.5h-40.34v254.48h14.39c0.28,0,0.5,0.22,0.5,0.5S290.19,363.06,289.91,363.06z"></path><path class="st1" d="M295.99,381.97c-0.28,0-0.5-0.22-0.5-0.5v-17.8c0-0.28,0.22-0.5,0.5-0.5s0.5,0.22,0.5,0.5v17.8
			C296.49,381.75,296.27,381.97,295.99,381.97z"></path></g></g></svg>