<svg transform="scale(1)" version="1.1" id="qISl6F9ZiW" xmlns="http://www.w3.org/2000/svg" xmlns:xlink="http://www.w3.org/1999/xlink" x="0px" y="0px" width="500px" height="500px" viewBox="0 0 500 500" xml:space="preserve" class="pbimage_pbimage__wrapper__image__0LEis false"><title>Audit</title><style type="text/css"> .st0{fill:#000001;} .st1{fill:#FFDC32;} .st2{fill:#005596;} .st3{fill:#FFFFFF;} .st4{fill:#FFB0CC;}
 .st4{fill:#e4b0ff;}
 .st3{fill:#FFFFFF;}
 .st2{fill:#005596;}
 .st1{fill:#ffa8a8;}
 .st0{fill:#000001;}</style><g id="Calculator"><path class="st0" d="M100.17,269.68c-0.21,0-0.4-0.13-0.47-0.33l-33.3-93.09c-1.29-3.6-1.03-7.45,0.72-10.85
		c1.75-3.39,4.74-5.83,8.41-6.86l51.66-14.6c0.27-0.08,0.54,0.08,0.62,0.35c0.08,0.27-0.08,0.54-0.35,0.62l-51.66,14.6
		c-3.4,0.96-6.17,3.22-7.79,6.36c-1.62,3.15-1.86,6.72-0.67,10.05l33.3,93.09c0.09,0.26-0.04,0.55-0.3,0.64
		C100.28,269.67,100.23,269.68,100.17,269.68z" fill="#000001"></path><path class="st0" d="M92.69,192.66c-4.27,0-8.27-2.64-9.81-6.84c-1-2.71-0.84-5.64,0.44-8.23c1.28-2.59,3.51-4.49,6.27-5.35
		l38.81-12.04c0.26-0.08,0.54,0.07,0.63,0.33c0.08,0.26-0.07,0.54-0.33,0.63L89.89,173.2c-2.5,0.78-4.51,2.49-5.67,4.84
		c-1.16,2.34-1.3,4.99-0.4,7.44c1.72,4.67,6.8,7.21,11.58,5.78l35.42-10.61c0.27-0.08,0.54,0.07,0.62,0.34
		c0.08,0.26-0.07,0.54-0.34,0.62l-35.42,10.61C94.69,192.52,93.68,192.66,92.69,192.66z" fill="#000001"></path><path class="st0" d="M102.23,223.22c-0.85,0-1.7-0.19-2.49-0.57c-1.4-0.67-2.46-1.84-2.98-3.3l-2.06-5.79
		c-1.07-3.02,0.51-6.34,3.52-7.41l5.79-2.06c3.01-1.07,6.34,0.51,7.41,3.52l2.06,5.79c1.07,3.02-0.51,6.34-3.52,7.41l-5.79,2.06
		C103.54,223.11,102.88,223.22,102.23,223.22z M105.95,204.77c-0.53,0-1.07,0.09-1.6,0.28l-5.79,2.06c-2.49,0.89-3.8,3.64-2.92,6.13
		l2.06,5.79l0,0c0.43,1.21,1.3,2.18,2.46,2.73c1.16,0.55,2.46,0.62,3.67,0.19l5.79-2.06c2.49-0.89,3.8-3.64,2.92-6.13l-2.06-5.79
		C109.78,206,107.93,204.77,105.95,204.77z" fill="#000001"></path><path class="st0" d="M123.69,215.59c-2.39,0-4.64-1.48-5.49-3.85c0,0,0,0,0,0l-2.06-5.79c-0.52-1.46-0.44-3.04,0.23-4.43
		c0.67-1.4,1.84-2.46,3.3-2.97l5.79-2.06c3.01-1.07,6.34,0.51,7.41,3.52l2.06,5.79c0.52,1.46,0.44,3.04-0.23,4.43
		c-0.67,1.4-1.84,2.46-3.3,2.97l-5.79,2.06C124.98,215.48,124.33,215.59,123.69,215.59z M119.14,211.4c0.9,2.48,3.65,3.79,6.13,2.92
		l5.79-2.06c2.49-0.89,3.8-3.64,2.92-6.13l-2.06-5.79c-0.89-2.49-3.64-3.8-6.13-2.92l-5.79,2.06c-1.21,0.43-2.18,1.3-2.73,2.46
		c-0.55,1.16-0.62,2.46-0.19,3.67L119.14,211.4z" fill="#000001"></path><path class="st0" d="M110.17,245.5c-2.38,0-4.62-1.48-5.48-3.86c0,0,0,0,0,0l-2.06-5.79c-0.52-1.46-0.44-3.04,0.23-4.43
		c0.67-1.4,1.84-2.46,3.3-2.97l5.79-2.06c3.01-1.07,6.34,0.51,7.41,3.52l2.06,5.79c0.52,1.46,0.44,3.04-0.23,4.43
		c-0.67,1.4-1.84,2.46-3.3,2.97l-5.79,2.06C111.46,245.39,110.81,245.5,110.17,245.5z M105.63,241.31c0.9,2.49,3.65,3.8,6.13,2.92
		l5.79-2.06c1.21-0.43,2.18-1.3,2.73-2.46c0.55-1.16,0.62-2.46,0.19-3.67l-2.06-5.79c-0.89-2.49-3.64-3.8-6.13-2.92l-5.79,2.06
		c-2.49,0.89-3.8,3.64-2.92,6.13L105.63,241.31z" fill="#000001"></path><path class="st0" d="M131.62,237.87c-2.39,0-4.64-1.48-5.48-3.85v0l-2.06-5.79c-1.07-3.02,0.51-6.34,3.52-7.41l5.79-2.06
		c1.46-0.52,3.04-0.44,4.43,0.23s2.46,1.84,2.97,3.3l2.06,5.79c1.07,3.02-0.51,6.34-3.52,7.41l-5.79,2.06
		C132.91,237.76,132.26,237.87,131.62,237.87z M127.08,233.68c0.89,2.49,3.64,3.79,6.13,2.92l5.79-2.06
		c2.49-0.89,3.8-3.64,2.92-6.13l-2.06-5.79c-0.89-2.49-3.63-3.8-6.13-2.92l-5.79,2.06c-2.49,0.89-3.8,3.64-2.92,6.13L127.08,233.68z
		" fill="#000001"></path><path class="st0" d="M118.35,268.45c-2.39,0-4.64-1.48-5.49-3.85c0,0,0,0,0,0l-2.06-5.79c-1.07-3.02,0.51-6.34,3.52-7.41l5.79-2.06
		c3.01-1.07,6.34,0.51,7.41,3.52l2.06,5.79c1.07,3.02-0.51,6.34-3.52,7.41l-5.79,2.06C119.64,268.34,118.99,268.45,118.35,268.45z
		 M113.8,264.26c0.9,2.49,3.65,3.79,6.13,2.92l5.79-2.06c2.49-0.89,3.8-3.64,2.92-6.13l-2.06-5.79c-0.89-2.49-3.64-3.8-6.13-2.92
		l-5.79,2.06c-2.49,0.89-3.8,3.64-2.92,6.13L113.8,264.26z" fill="#000001"></path><path class="st0" d="M139.78,260.81c-2.39,0-4.63-1.48-5.47-3.86l-2.06-5.79c-1.07-3.02,0.51-6.34,3.52-7.41l5.79-2.06
		c1.46-0.52,3.04-0.44,4.43,0.23s2.46,1.84,2.97,3.3l2.06,5.79c0.52,1.46,0.44,3.04-0.23,4.44c-0.67,1.4-1.84,2.46-3.3,2.97
		l-5.79,2.06C141.08,260.7,140.43,260.81,139.78,260.81z M143.51,242.36c-0.54,0-1.09,0.09-1.61,0.28l-5.79,2.06
		c-2.49,0.89-3.8,3.64-2.92,6.13l2.06,5.79v0c0.89,2.49,3.64,3.81,6.13,2.92l5.79-2.06c1.21-0.43,2.18-1.3,2.73-2.46
		c0.55-1.16,0.62-2.46,0.19-3.67l-2.06-5.79c-0.43-1.21-1.3-2.18-2.46-2.73C144.92,242.51,144.21,242.36,143.51,242.36z" fill="#000001"></path></g><g id="papers"><g id="paper-2"><g id="colors"><path class="st0" d="M70.63,368.89l-9.97-84.85c-0.49-4.16,2.49-7.93,6.65-8.42l84.85-9.97c4.16-0.49,7.93,2.49,8.42,6.65
				l9.97,84.85c0.49,4.16-2.49,7.93-6.65,8.42l-84.85,9.97C74.88,376.03,71.12,373.05,70.63,368.89z"></path><path class="st1" d="M73.89,368.49l-9.97-84.85c-0.49-4.16,2.49-7.93,6.65-8.42l84.85-9.97c4.16-0.49,7.93,2.49,8.42,6.65
				l9.97,84.85c0.49,4.16-2.49,7.93-6.65,8.42l-84.85,9.97C78.14,375.62,74.37,372.65,73.89,368.49z"></path></g><g id="line"><path class="st0" d="M80.42,375.63c-0.25,0-0.47-0.19-0.5-0.44c-0.03-0.27,0.17-0.52,0.44-0.55l86.73-9.96
				c1.88-0.22,3.56-1.16,4.73-2.65c1.17-1.49,1.7-3.34,1.48-5.22l-9.97-84.85c-0.46-3.88-3.99-6.66-7.87-6.21l-73.57,8.65
				c-0.27,0.04-0.52-0.16-0.56-0.44c-0.03-0.27,0.16-0.52,0.44-0.55l73.57-8.65c4.42-0.52,8.45,2.66,8.98,7.09l9.97,84.85
				c0.25,2.14-0.35,4.26-1.69,5.96s-3.26,2.77-5.4,3.02l-86.73,9.96C80.46,375.62,80.44,375.63,80.42,375.63z"></path><path class="st0" d="M88.72,292.67c-0.25,0-0.46-0.18-0.5-0.44c-0.04-0.27,0.16-0.52,0.43-0.56l49.7-6.41
				c0.28-0.03,0.52,0.16,0.56,0.43c0.04,0.27-0.16,0.52-0.43,0.56l-49.7,6.41C88.76,292.67,88.74,292.67,88.72,292.67z"></path><path class="st0" d="M89.31,297.23c-0.25,0-0.46-0.18-0.5-0.43c-0.04-0.27,0.16-0.53,0.43-0.56l49.87-6.59
				c0.27-0.04,0.52,0.16,0.56,0.43s-0.16,0.53-0.43,0.56l-49.87,6.59C89.35,297.22,89.33,297.23,89.31,297.23z"></path><path class="st0" d="M90.49,301.7c-0.25,0-0.46-0.19-0.5-0.44c-0.03-0.27,0.16-0.52,0.43-0.56l39.32-4.9
				c0.28-0.04,0.52,0.16,0.56,0.43c0.03,0.27-0.16,0.52-0.43,0.56l-39.32,4.9C90.53,301.69,90.51,301.7,90.49,301.7z"></path><path class="st0" d="M74.62,322.88c-0.25,0-0.47-0.19-0.5-0.44c-0.03-0.27,0.16-0.52,0.44-0.56l54.09-6.33
				c0.28-0.03,0.52,0.17,0.55,0.44c0.03,0.27-0.16,0.52-0.44,0.56l-54.09,6.33C74.66,322.88,74.64,322.88,74.62,322.88z"></path><path class="st0" d="M75.81,326.59c-0.25,0-0.47-0.19-0.5-0.44c-0.03-0.27,0.16-0.52,0.44-0.55l59.49-6.92
				c0.28-0.03,0.52,0.17,0.55,0.44s-0.16,0.52-0.44,0.55l-59.49,6.92C75.85,326.58,75.83,326.59,75.81,326.59z"></path><path class="st0" d="M76.31,333.68c-0.25,0-0.46-0.18-0.5-0.44c-0.03-0.27,0.16-0.52,0.43-0.56L116,327.7
				c0.27-0.04,0.52,0.16,0.56,0.43c0.03,0.27-0.16,0.52-0.43,0.56l-39.75,4.98C76.35,333.67,76.33,333.68,76.31,333.68z"></path><path class="st0" d="M82.64,353.17c-0.25,0-0.47-0.19-0.5-0.44c-0.03-0.27,0.16-0.52,0.44-0.56l51.98-6.24
				c0.28-0.04,0.52,0.16,0.56,0.44c0.03,0.27-0.16,0.52-0.44,0.56l-51.98,6.24C82.68,353.17,82.66,353.17,82.64,353.17z"></path><path class="st0" d="M85.59,358.83c-0.25,0-0.47-0.19-0.5-0.44c-0.03-0.27,0.16-0.52,0.44-0.55l52.91-6.25
				c0.28-0.04,0.52,0.16,0.56,0.44c0.03,0.27-0.16,0.52-0.44,0.55l-52.91,6.25C85.63,358.82,85.61,358.83,85.59,358.83z"></path><path class="st2" d="M75.81,296.48c-0.88,0-1.74-0.2-2.55-0.6c-1.38-0.69-2.41-1.88-2.89-3.35l-9.64-29.43
				c-0.55-1.69-0.41-3.5,0.4-5.09c0.81-1.59,2.19-2.77,3.88-3.32l1.16-0.38c3.34-1.1,7.01,0.72,8.17,4.05l7.02,20.1
				c0.18,0.52-0.09,1.09-0.61,1.27c-0.52,0.18-1.09-0.09-1.27-0.61l-7.02-20.1c-0.81-2.31-3.35-3.56-5.67-2.81l-1.16,0.38
				c-1.19,0.39-2.15,1.21-2.72,2.33c-0.57,1.11-0.67,2.38-0.28,3.56l9.64,29.43c0.31,0.96,0.98,1.73,1.88,2.18
				c0.9,0.45,1.93,0.52,2.88,0.19c1.7-0.59,2.61-2.45,2.03-4.15l-8.02-23.53c-0.12-0.35-0.37-0.63-0.7-0.79
				c-0.33-0.16-0.7-0.19-1.05-0.07c-0.81,0.28-1.25,1.16-0.98,1.96l6.29,19.05c0.17,0.52-0.11,1.09-0.64,1.26
				c-0.52,0.18-1.09-0.11-1.26-0.64l-6.29-19.04c-0.62-1.83,0.38-3.85,2.22-4.49c0.85-0.29,1.77-0.24,2.58,0.16
				c0.81,0.4,1.42,1.09,1.71,1.95l8.02,23.53c0.93,2.74-0.53,5.74-3.27,6.69C77.07,296.37,76.44,296.48,75.81,296.48z"></path></g></g><g id="paper-1"><g id="colors_3_"><polyline class="st0" points="296.27,112.77 294.91,96.89 125.53,111.43 145.98,349.56 158.1,348.52 			"></polyline><polyline class="st3" points="312.56,131.43 311.06,113.92 141.68,128.47 162.13,366.59 331.5,352.05 329.83,332.52 			"></polyline></g><g id="line_3_"><path class="st2" d="M162.13,367.59c-0.51,0-0.95-0.39-1-0.91l-20.45-238.12c-0.05-0.55,0.36-1.03,0.91-1.08l169.38-14.55
				c0.27-0.03,0.53,0.06,0.73,0.23c0.2,0.17,0.33,0.42,0.35,0.68l1.5,17.51c0.05,0.55-0.36,1.03-0.91,1.08
				c-0.54,0.05-1.04-0.36-1.08-0.91L310.15,115l-167.39,14.38l20.28,236.13l167.38-14.37l-1.58-18.53
				c-0.05-0.55,0.36-1.03,0.91-1.08c0.54-0.06,1.03,0.36,1.08,0.91l1.67,19.53c0.05,0.55-0.36,1.03-0.91,1.08l-169.37,14.54
				C162.19,367.58,162.16,367.59,162.13,367.59z"></path><path class="st2" d="M192.32,363.56c-0.13,0-0.27-0.03-0.4-0.08c-11.67-5.03-21.63-12.49-31.34-23.48
				c-0.18-0.21-0.27-0.48-0.25-0.75c0.03-0.27,0.16-0.53,0.38-0.7c5.19-4.04,11.53-6.71,19.4-8.18c0.31-0.05,0.63,0.04,0.87,0.25
				c0.23,0.22,0.35,0.53,0.31,0.85c-0.77,6.4-0.29,12.15,1.4,17.09c1.95,5.68,5.55,10.35,10.14,13.15c0.45,0.27,0.61,0.85,0.37,1.31
				C193.03,363.36,192.68,363.56,192.32,363.56z M162.8,339.48c7.33,8.14,14.81,14.25,23.1,18.82c-2.18-2.59-3.92-5.68-5.1-9.1
				c-1.67-4.87-2.22-10.45-1.64-16.61C172.65,333.96,167.27,336.22,162.8,339.48z"></path><path class="st2" d="M238.8,136.98c-0.51,0-0.94-0.39-0.99-0.9c-0.05-0.55,0.35-1.04,0.9-1.09l59.93-5.76
				c0.54-0.05,1.04,0.35,1.09,0.9s-0.35,1.04-0.9,1.09l-59.93,5.76C238.86,136.97,238.83,136.98,238.8,136.98z"></path><path class="st2" d="M241.48,151.67c-0.52,0-0.96-0.4-1-0.93c-0.04-0.55,0.38-1.03,0.93-1.07l25.67-1.82
				c0.54-0.04,1.03,0.38,1.07,0.93c0.04,0.55-0.38,1.03-0.93,1.07l-25.67,1.82C241.53,151.66,241.5,151.67,241.48,151.67z"></path><path class="st2" d="M243.62,170.62c-0.51,0-0.95-0.39-1-0.91c-0.05-0.55,0.36-1.04,0.91-1.08l47.45-4.11
				c0.56-0.06,1.03,0.36,1.08,0.91c0.05,0.55-0.36,1.04-0.91,1.08l-47.45,4.11C243.68,170.61,243.65,170.62,243.62,170.62z"></path><path class="st2" d="M195.98,214.38c-0.5,0-0.94-0.38-0.99-0.89c-0.06-0.55,0.34-1.04,0.88-1.1l61.42-6.79
				c0.57-0.05,1.04,0.34,1.1,0.88c0.06,0.55-0.33,1.04-0.88,1.1l-61.42,6.79C196.05,214.37,196.02,214.38,195.98,214.38z"></path><path class="st2" d="M199.01,240.91c-0.5,0-0.94-0.38-0.99-0.89c-0.06-0.55,0.34-1.04,0.89-1.1l58.67-6.33
				c0.55-0.06,1.04,0.34,1.1,0.89c0.06,0.55-0.34,1.04-0.89,1.1l-58.67,6.33C199.08,240.9,199.05,240.91,199.01,240.91z"></path><path class="st2" d="M189.37,324.52c-0.51,0-0.95-0.39-0.99-0.91l-6.05-63.57c-0.05-0.55,0.35-1.04,0.9-1.09
				c0.56-0.07,1.04,0.35,1.09,0.9l5.96,62.62l116.47-6.27c0.55-0.04,1.02,0.39,1.05,0.95c0.03,0.55-0.39,1.02-0.95,1.05
				l-117.43,6.32C189.41,324.52,189.39,324.52,189.37,324.52z"></path><path class="st2" d="M188.55,307.69c-0.31,0-0.61-0.14-0.8-0.4c-0.33-0.44-0.24-1.07,0.2-1.4l21.33-15.9
				c0.43-0.32,1.04-0.24,1.38,0.18l8.88,11.1l17.12-12.66c0.36-0.26,0.84-0.26,1.2,0l14.1,10.63l14.39-19.67
				c0.17-0.23,0.42-0.37,0.7-0.4c0.28-0.03,0.56,0.06,0.77,0.25l25.15,22.4c0.41,0.37,0.45,1,0.08,1.41c-0.37,0.41-1,0.45-1.41,0.08
				l-24.33-21.67l-14.34,19.6c-0.16,0.22-0.4,0.36-0.66,0.4c-0.27,0.04-0.54-0.03-0.75-0.19l-14.31-10.79l-17.29,12.79
				c-0.43,0.32-1.04,0.24-1.38-0.18l-8.88-11.1l-20.56,15.32C188.97,307.62,188.76,307.69,188.55,307.69z"></path></g><path class="st4" d="M188.01,299.05c-0.31,0-0.61-0.14-0.81-0.41c-0.33-0.44-0.23-1.07,0.21-1.4l27.83-20.49
			c0.39-0.29,0.93-0.25,1.28,0.08l10.69,10.18l11.62-11.76c0.29-0.29,0.72-0.38,1.1-0.22l8.95,3.72L266.77,262
			c0.4-0.38,1.04-0.36,1.41,0.05s0.36,1.04-0.05,1.41l-18.35,17.2c-0.29,0.27-0.7,0.34-1.07,0.19l-8.93-3.71l-11.84,11.98
			c-0.38,0.39-1.01,0.4-1.4,0.02l-10.79-10.28l-27.15,19.99C188.43,298.98,188.22,299.05,188.01,299.05z"></path><path class="st4" d="M177.98,227.7c-5.24,0-9.5-4.82-9.5-10.75s4.26-10.75,9.5-10.75s9.5,4.82,9.5,10.75
			S183.22,227.7,177.98,227.7z M177.98,208.2c-4.14,0-7.5,3.93-7.5,8.75s3.36,8.75,7.5,8.75s7.5-3.93,7.5-8.75
			S182.12,208.2,177.98,208.2z"></path><path class="st4" d="M179.51,253.7c-5.24,0-9.5-4.82-9.5-10.75s4.26-10.75,9.5-10.75s9.5,4.82,9.5,10.75
			S184.75,253.7,179.51,253.7z M179.51,234.2c-4.14,0-7.5,3.93-7.5,8.75s3.36,8.75,7.5,8.75s7.5-3.93,7.5-8.75
			S183.65,234.2,179.51,234.2z"></path><path class="st4" d="M197.58,199.1c-17.61,0-31.94-14.33-31.94-31.94s14.33-31.94,31.94-31.94s31.94,14.33,31.94,31.94
			S215.19,199.1,197.58,199.1z M197.58,137.22c-16.51,0-29.94,13.43-29.94,29.94c0,16.51,13.43,29.94,29.94,29.94
			s29.94-13.43,29.94-29.94C227.52,150.65,214.09,137.22,197.58,137.22z"></path><path class="st4" d="M220.7,187.4c-0.22,0-0.45-0.08-0.64-0.23l-22.87-18.94c-0.23-0.19-0.37-0.48-0.36-0.79l0.61-30.99
			c0.01-0.55,0.51-0.98,1.02-0.98c0.55,0.01,0.99,0.47,0.98,1.02l-0.6,30.51l22.5,18.63c0.43,0.35,0.48,0.98,0.13,1.41
			C221.27,187.27,220.99,187.4,220.7,187.4z"></path><path class="st4" d="M198.27,168.54c-0.25,0-0.5-0.09-0.7-0.28c-0.4-0.38-0.41-1.02-0.02-1.41l20.6-21.29
			c0.38-0.4,1.02-0.41,1.41-0.02c0.4,0.38,0.41,1.02,0.02,1.41l-20.6,21.29C198.79,168.43,198.53,168.54,198.27,168.54z"></path></g></g><g id="magnifier"><g id="colors_1_"><ellipse class="st4" transform="matrix(0.8349 -0.5504 0.5504 0.8349 -78.6794 223.693)" cx="333.53" cy="243" rx="62.78" ry="73.5"></ellipse><ellipse class="st1" transform="matrix(0.8349 -0.5504 0.5504 0.8349 -76.8577 224.508)" cx="335.8" cy="240.37" rx="49.76" ry="63.29"></ellipse><path class="st2" d="M376.42,315.86c2.39,7.44,5.89,14.53,10.34,20.96c0,0,41.28,65.7,42.27,66.06c1.86,0.65,3.88-0.15,5.68-0.92
			c1.27-0.55,2.59-1.14,3.45-2.23c0.93-1.18,1.16-2.75,1.23-4.26c0,0-45.28-75.33-45.47-75.73c-3.52-3.61-7.04-7.24-10.56-10.86
			C381.72,311.18,379.41,313.01,376.42,315.86z"></path><path class="st0" d="M380.4,299.73c-3.58,3.17-7.55,5.9-11.79,8.1c0,0,6.04,8.67,5.98,8.98c2.1-1.25,4.34-2.25,6.35-3.63
			c2.02-1.38,3.85-3.19,4.65-5.49L380.4,299.73z"></path><ellipse class="st3" transform="matrix(0.2429 -0.9701 0.9701 0.2429 19.2074 450.3807)" cx="298.13" cy="212.89" rx="17.1" ry="8.17"></ellipse><ellipse class="st3" transform="matrix(0.9901 -0.1401 0.1401 0.9901 -30.4756 43.7235)" cx="295.3" cy="238.31" rx="2.81" ry="4.34"></ellipse></g><g id="line_1_"><path class="st0" d="M374.43,316.94c-0.17,0-0.32-0.08-0.42-0.22c-1.19-1.79-2.39-3.58-3.58-5.36l-2.33-3.48
			c-0.15-0.23-0.09-0.54,0.14-0.69c0.23-0.15,0.54-0.09,0.69,0.14l2.33,3.47c1.13,1.69,2.26,3.38,3.39,5.07
			c1.52-0.44,7.85-2.56,10.38-7.96l-5.1-7.85c-0.15-0.23-0.08-0.54,0.15-0.69c0.23-0.15,0.54-0.09,0.69,0.15l5.25,8.08
			c0.09,0.14,0.11,0.32,0.04,0.47c-2.99,6.78-11.17,8.78-11.51,8.87C374.51,316.93,374.47,316.94,374.43,316.94z"></path><path class="st0" d="M385.2,334.73c-0.17,0-0.34-0.09-0.43-0.24l-3.72-6.23c-1.62-3.78-3.2-7.5-4.78-11.23
			c-0.11-0.25,0.01-0.55,0.26-0.66c0.25-0.11,0.55,0.01,0.66,0.26c1.58,3.73,3.16,7.45,4.75,11.17l3.69,6.17
			c0.14,0.24,0.06,0.54-0.17,0.69C385.38,334.7,385.29,334.73,385.2,334.73z"></path><path class="st0" d="M383.28,327.42c-0.24,0-0.45-0.17-0.49-0.41c-0.05-0.27,0.13-0.53,0.4-0.58c2.89-0.54,5.63-2.13,7.52-4.36
			c0.18-0.21,0.5-0.23,0.71-0.06c0.21,0.18,0.24,0.49,0.06,0.71c-2.07,2.44-4.95,4.11-8.1,4.7
			C383.34,327.41,383.31,327.42,383.28,327.42z"></path><path class="st0" d="M389.06,319.86c-0.14,0-0.28-0.06-0.38-0.18l-1.33-1.58c-0.93-1.1-1.86-2.21-2.79-3.31
			c-0.18-0.21-0.15-0.53,0.06-0.71c0.21-0.18,0.53-0.15,0.71,0.06c0.93,1.1,1.86,2.21,2.79,3.32l1.33,1.58
			c0.18,0.21,0.15,0.53-0.06,0.7C389.29,319.82,389.18,319.86,389.06,319.86z"></path><path class="st0" d="M386.17,322.01c-0.17,0-0.33-0.08-0.42-0.23c-1.08-1.72-2.27-3.44-3.54-5.12c-0.17-0.22-0.12-0.53,0.1-0.7
			c0.22-0.16,0.53-0.12,0.7,0.1c1.29,1.71,2.49,3.45,3.58,5.2c0.15,0.23,0.08,0.54-0.16,0.69
			C386.35,321.98,386.26,322.01,386.17,322.01z"></path><path class="st0" d="M383.21,323.59c-0.17,0-0.34-0.09-0.44-0.25c-0.91-1.62-1.74-3.33-2.47-5.08c-0.11-0.25,0.01-0.55,0.27-0.65
			c0.26-0.11,0.55,0.01,0.65,0.27c0.72,1.72,1.54,3.4,2.42,4.98c0.14,0.24,0.05,0.55-0.19,0.68
			C383.38,323.57,383.29,323.59,383.21,323.59z"></path><path class="st0" d="M418.76,362.07c-0.17,0-0.33-0.08-0.43-0.24l-25.39-41.38c-2.71-3.11-5.31-5.99-7.89-8.73
			c-0.19-0.2-0.18-0.52,0.02-0.71c0.2-0.19,0.52-0.18,0.71,0.02c2.59,2.75,5.19,5.64,7.96,8.82l25.44,41.45
			c0.14,0.24,0.07,0.54-0.16,0.69C418.94,362.04,418.85,362.07,418.76,362.07z"></path><path class="st0" d="M403.58,363.96c-0.17,0-0.34-0.09-0.43-0.25c-2.46-4.18-5.07-8.31-7.74-12.27c-0.15-0.23-0.09-0.54,0.14-0.69
			c0.23-0.15,0.54-0.09,0.69,0.14c2.68,3.98,5.3,8.13,7.78,12.33c0.14,0.24,0.06,0.54-0.18,0.68
			C403.75,363.93,403.67,363.96,403.58,363.96z"></path><path class="st0" d="M432.17,403.54L432.17,403.54c-0.28,0.02-1.05-0.03-3.94-0.22c-0.16-0.01-0.31-0.1-0.39-0.23l-10.9-17.49
			c-0.67-1.1-1.32-2.2-1.97-3.3l-0.88-1.48c-0.14-0.24-0.06-0.54,0.17-0.69c0.23-0.14,0.54-0.06,0.69,0.17l0.88,1.48
			c0.65,1.1,1.3,2.19,1.97,3.29l10.76,17.27c1.3,0.09,3.16,0.2,3.47,0.21c2.16-0.43,4.17-1.77,5.39-3.59l1.36-3.52l-11.7-18.82
			c-0.15-0.23-0.07-0.54,0.16-0.69c0.23-0.14,0.54-0.07,0.69,0.16l11.83,19.03c0.08,0.13,0.1,0.3,0.04,0.44l-1.47,3.8
			c-0.01,0.03-0.03,0.07-0.05,0.1C436.9,401.54,434.62,403.07,432.17,403.54z"></path><path class="st3" d="M273.92,237.14c-0.75,0-1.55-0.27-2.27-0.77c-0.8-0.56-1.39-1.33-1.91-2.08c-1.12-1.64-1.98-3.43-2.58-5.32
			c-0.08-0.26,0.06-0.54,0.33-0.63c0.26-0.08,0.54,0.06,0.63,0.33c0.57,1.79,1.39,3.49,2.45,5.05c0.47,0.67,1,1.36,1.67,1.83
			c0.69,0.49,1.47,0.68,2.12,0.54c1-0.2,1.77-1.11,2.44-1.91l1.34-1.61c0.94-1.13,1.88-2.26,2.83-3.4c0.18-0.21,0.49-0.24,0.7-0.06
			c0.21,0.18,0.24,0.49,0.06,0.7c-0.95,1.13-1.89,2.26-2.83,3.39l-1.34,1.62c-0.75,0.88-1.67,1.98-3.01,2.25
			C274.35,237.12,274.14,237.14,273.92,237.14z"></path><path class="st3" d="M276.33,257.55c-0.32,0-0.65-0.04-0.97-0.13c-1.22-0.33-2.17-1.15-2.79-1.74c-1.61-1.54-2.91-3.4-3.76-5.38
			c-0.11-0.25,0.01-0.55,0.26-0.66c0.25-0.11,0.55,0.01,0.66,0.26c0.8,1.86,2.02,3.61,3.54,5.06c0.85,0.82,1.6,1.29,2.36,1.5
			c0.91,0.24,1.82,0.02,2.32-0.56c0.29-0.34,0.46-0.84,0.59-1.27c0.22-0.76,0.38-1.57,0.54-2.35c0.19-0.98,0.4-1.99,0.72-2.96
			c0.42-1.26,1.45-3.52,3.6-4.41c0.26-0.1,0.55,0.02,0.65,0.27c0.1,0.26-0.02,0.55-0.27,0.65c-1.79,0.74-2.67,2.69-3.04,3.79
			c-0.3,0.92-0.5,1.89-0.69,2.84c-0.16,0.8-0.33,1.63-0.56,2.43c-0.15,0.54-0.37,1.15-0.79,1.65
			C278.13,257.19,277.26,257.55,276.33,257.55z"></path><path class="st3" d="M290.55,289.48c-0.2,0-0.38-0.12-0.46-0.31c-3.21-7.93-3.48-17.39-0.83-28.9c0.06-0.27,0.33-0.44,0.6-0.38
			c0.27,0.06,0.44,0.33,0.38,0.6c-2.6,11.31-2.34,20.56,0.79,28.3c0.1,0.26-0.02,0.55-0.28,0.65
			C290.68,289.46,290.61,289.48,290.55,289.48z"></path><path class="st3" d="M315.46,306.77c-2.88,0-5.74-1.17-7.57-3.29c-1.69-1.96-2.46-4.49-3-6.72c-1.31-5.49-1.69-11.1-1.12-16.7
			c0.03-0.27,0.27-0.47,0.55-0.45c0.27,0.03,0.47,0.27,0.45,0.55c-0.56,5.48-0.19,10.99,1.1,16.36c0.51,2.11,1.23,4.5,2.78,6.3
			c2.46,2.87,7.03,3.78,10.61,2.13c3.47-1.6,5.86-5.37,5.94-9.37c0.01-0.28,0.25-0.51,0.51-0.49c0.28,0.01,0.5,0.23,0.49,0.51
			c-0.09,4.38-2.71,8.5-6.52,10.25C318.36,306.48,316.91,306.77,315.46,306.77z"></path><path class="st3" d="M336.07,313.22c-0.16,0-0.31-0.07-0.41-0.21c-0.16-0.23-0.11-0.54,0.12-0.7c3.89-2.75,6.11-7.58,5.64-12.31
			c-0.03-0.27,0.17-0.52,0.45-0.55c0.28-0.02,0.52,0.17,0.55,0.45c0.5,5.08-1.88,10.28-6.06,13.23
			C336.27,313.19,336.17,313.22,336.07,313.22z"></path><path class="st3" d="M344.52,313.8c-0.1,0-0.2-0.03-0.28-0.09c-1.35-0.93-2.05-2.76-1.78-4.66c0.27-1.82,1.35-3.4,2.14-4.42
			c1.57-2.05,3.46-3.84,5.6-5.31c0.23-0.15,0.54-0.1,0.7,0.13c0.16,0.23,0.1,0.54-0.13,0.7c-2.06,1.41-3.87,3.12-5.38,5.09
			c-1.16,1.51-1.76,2.73-1.94,3.96c-0.21,1.53,0.32,2.98,1.36,3.7c0.23,0.16,0.28,0.47,0.13,0.7
			C344.84,313.72,344.68,313.8,344.52,313.8z"></path><path class="st3" d="M361.47,310.8c-0.05,0-0.11-0.01-0.16-0.03c-0.26-0.09-0.4-0.37-0.31-0.64c2.23-6.49,5.55-12.48,9.85-17.81
			c0.17-0.21,0.49-0.25,0.7-0.07c0.21,0.17,0.25,0.49,0.07,0.7c-4.23,5.24-7.49,11.13-9.69,17.51
			C361.87,310.67,361.68,310.8,361.47,310.8z"></path><path class="st3" d="M378.58,286.76c-0.14,0-0.28-0.06-0.38-0.17c-0.18-0.21-0.16-0.52,0.05-0.71c4.36-3.82,10.33-4.85,15.04-5.32
			c0.26-0.03,0.52,0.17,0.55,0.45c0.03,0.27-0.17,0.52-0.45,0.55c-4.56,0.46-10.33,1.45-14.48,5.08
			C378.82,286.71,378.7,286.76,378.58,286.76z"></path><path class="st3" d="M388.42,267.84c-0.1,0-0.2-0.03-0.28-0.09c-0.23-0.16-0.28-0.47-0.13-0.7c2.72-3.94,6.67-7.07,11.12-8.81
			c0.26-0.1,0.55,0.03,0.65,0.28c0.1,0.26-0.03,0.55-0.28,0.65c-4.27,1.67-8.05,4.67-10.66,8.45
			C388.74,267.76,388.58,267.84,388.42,267.84z"></path><path class="st3" d="M389.12,243.35c-0.27,0-0.49-0.21-0.5-0.48c-0.14-2.92,0.13-5.81,0.8-8.59c0.43-1.76,1.14-3.99,2.75-5.6
			c1.05-1.04,2.31-1.46,3.36-1.13c0.26,0.08,0.41,0.36,0.33,0.63c-0.08,0.26-0.36,0.41-0.63,0.33c-1.03-0.32-2.07,0.6-2.36,0.89
			c-1.44,1.43-2.08,3.49-2.49,5.12c-0.65,2.68-0.92,5.48-0.78,8.31c0.01,0.28-0.2,0.51-0.47,0.52
			C389.14,243.35,389.13,243.35,389.12,243.35z"></path><path class="st3" d="M386.28,232.01c-0.27,0-0.49-0.22-0.5-0.49c-0.15-6.03,0.62-12.05,2.3-17.89c0.08-0.27,0.35-0.42,0.62-0.34
			c0.27,0.08,0.42,0.35,0.34,0.62c-1.65,5.74-2.41,11.66-2.26,17.59c0.01,0.28-0.21,0.51-0.49,0.51
			C386.29,232.01,386.29,232.01,386.28,232.01z"></path><path class="st3" d="M367.59,201.46c-0.26,0-0.49-0.21-0.5-0.47c-0.16-2.98-0.45-5.81-2.23-7.67c-0.96-1-2.31-1.65-3.61-2.28
			c-1.75-0.84-3.56-1.72-4.57-3.46c-0.69-1.2-0.85-2.56-1-3.88c-0.11-0.95-0.21-1.85-0.5-2.69c-0.09-0.26,0.05-0.55,0.31-0.63
			c0.26-0.09,0.54,0.05,0.63,0.31c0.32,0.95,0.43,1.94,0.54,2.9c0.14,1.27,0.28,2.47,0.87,3.49c0.86,1.47,2.45,2.24,4.14,3.06
			c1.38,0.67,2.82,1.36,3.9,2.49c2.02,2.1,2.34,5.13,2.51,8.31c0.01,0.28-0.2,0.51-0.47,0.53
			C367.61,201.46,367.6,201.46,367.59,201.46z"></path><path class="st3" d="M372.05,206.53c-0.21,0-0.41-0.14-0.48-0.35c-1.45-4.59-1.6-9.48-0.44-14.13c0.07-0.27,0.34-0.43,0.61-0.36
			c0.27,0.07,0.43,0.34,0.36,0.61c-1.12,4.47-0.97,9.17,0.42,13.59c0.08,0.26-0.06,0.54-0.33,0.63
			C372.15,206.52,372.1,206.53,372.05,206.53z"></path><path class="st3" d="M314,182.5c-0.05,0-0.1-0.01-0.16-0.02c-0.26-0.09-0.41-0.37-0.32-0.63c0.63-1.94,1.67-3.6,3-4.82
			c1.52-1.4,3.39-2.18,5.27-2.21c0.96-0.01,2.05,0.17,3.23,0.57c3.3,1.06,6.32,3.15,8.5,5.87c0.17,0.22,0.14,0.53-0.08,0.7
			c-0.21,0.17-0.53,0.14-0.7-0.08c-2.06-2.58-4.91-4.54-8.03-5.55c-1.08-0.36-2.03-0.5-2.91-0.52c-1.63,0.03-3.27,0.72-4.61,1.95
			c-1.2,1.1-2.14,2.62-2.72,4.4C314.41,182.36,314.21,182.5,314,182.5z"></path><path class="st3" d="M308.65,184.06c-0.27,0-0.49-0.21-0.5-0.48c-0.1-3.37,0.82-6.82,2.6-9.7c0.15-0.24,0.45-0.31,0.69-0.16
			c0.24,0.15,0.31,0.45,0.16,0.69c-1.68,2.72-2.55,5.96-2.46,9.14c0.01,0.28-0.21,0.51-0.49,0.52
			C308.66,184.06,308.66,184.06,308.65,184.06z"></path><path class="st3" d="M272.76,212.66c-0.65,0-1.32-0.31-1.76-0.81c-0.39-0.45-0.54-0.99-0.42-1.52c0.06-0.27,0.33-0.44,0.6-0.38
			c0.27,0.06,0.44,0.33,0.38,0.6c-0.06,0.28,0.08,0.51,0.2,0.65c0.26,0.3,0.69,0.49,1.08,0.46c0.65-0.04,1.33-0.46,2.07-1.3
			c1.39-1.55,2.37-3.5,3.31-5.38c0.46-0.91,0.93-1.86,1.45-2.76c0.47-0.82,1.03-1.67,1.85-2.3c0.93-0.72,2.07-0.98,3.04-0.68
			c1.64,0.49,2.34,2.26,2.81,3.92c0.07,0.27-0.08,0.54-0.35,0.62c-0.27,0.08-0.54-0.08-0.62-0.35c-0.39-1.4-0.95-2.88-2.13-3.23
			c-0.66-0.2-1.48,0-2.14,0.51c-0.69,0.52-1.17,1.27-1.59,2c-0.51,0.88-0.97,1.81-1.42,2.71c-0.97,1.94-1.98,3.94-3.46,5.6
			c-0.6,0.66-1.53,1.55-2.75,1.63C272.85,212.66,272.81,212.66,272.76,212.66z"></path><path class="st2" d="M347.7,300.37c-19.32,0-40.32-11.79-53.86-32.34c-19.36-29.37-16.29-65.67,6.85-80.92
			c23.13-15.25,57.71-3.77,77.07,25.6c9.37,14.21,13.82,30.44,12.55,45.7c-1.28,15.31-8.17,27.82-19.4,35.22
			C363.96,298.2,355.99,300.37,347.7,300.37z M300.96,187.53l0.28,0.42c-22.68,14.95-25.62,50.63-6.57,79.54
			c19.06,28.91,53.01,40.26,75.69,25.31c10.97-7.23,17.7-19.47,18.95-34.47c1.26-15.04-3.14-31.05-12.38-45.07
			c-19.06-28.9-53.01-40.26-75.69-25.31L300.96,187.53z"></path><path class="st2" d="M343.17,313.95c-5.97,0-12.09-0.88-18.23-2.65c-17.66-5.1-33.37-16.99-44.24-33.48
			c-10.87-16.49-15.61-35.61-13.33-53.85c2.28-18.26,11.31-33.45,25.44-42.76c14.12-9.31,31.64-11.63,49.33-6.52
			c17.66,5.1,33.37,16.99,44.24,33.48c10.87,16.49,15.61,35.62,13.33,53.85c-2.28,18.26-11.31,33.45-25.43,42.76
			C365.04,310.85,354.38,313.95,343.17,313.95z M323.89,173.04c-11.02,0-21.49,3.04-30.54,9.01c-13.88,9.15-22.75,24.08-24.99,42.05
			c-2.24,18,2.43,36.88,13.17,53.18s26.25,28.04,43.68,33.07c17.4,5.02,34.62,2.75,48.5-6.4c13.88-9.15,22.75-24.08,24.99-42.05
			c2.24-18-2.43-36.88-13.17-53.17c-10.74-16.29-26.25-28.04-43.68-33.07C335.8,173.9,329.77,173.04,323.89,173.04z M293.08,181.63
			L293.08,181.63L293.08,181.63z"></path><path class="st2" d="M345.79,310.28c-6.6,0-13.25-0.95-19.7-2.87c-16.35-4.89-31.27-16.21-40.92-31.06
			c-9.32-14.34-13.97-32.05-13.1-49.87c0.3-6.25,1.28-12.55,2.93-18.71c1.22-4.5,3.34-11.06,7.73-16.03
			c0.18-0.21,0.5-0.23,0.71-0.04c0.21,0.18,0.23,0.5,0.04,0.71c-4.25,4.81-6.32,11.23-7.51,15.63c-1.62,6.1-2.6,12.32-2.89,18.5
			c-0.86,17.6,3.73,35.1,12.94,49.27c9.52,14.66,24.23,25.83,40.36,30.64c16.88,5.03,35.17,3.3,50.17-4.75
			c0.24-0.13,0.55-0.04,0.68,0.2s0.04,0.55-0.2,0.68C367.52,307.67,356.73,310.28,345.79,310.28z"></path><path class="st2" d="M324.67,279.74c-0.23,0-0.46-0.05-0.68-0.16c-0.74-0.38-1.03-1.28-0.66-2.02l34.27-67.3
			c0.38-0.74,1.28-1.03,2.02-0.66c0.74,0.38,1.03,1.28,0.66,2.02l-34.27,67.3C325.74,279.44,325.22,279.74,324.67,279.74z"></path><path class="st2" d="M330.97,232.28c-5.27,0-9.56-5.12-9.56-11.42s4.29-11.42,9.56-11.42s9.56,5.12,9.56,11.42
			S336.24,232.28,330.97,232.28z M330.97,212.44c-3.62,0-6.56,3.78-6.56,8.42s2.94,8.42,6.56,8.42s6.56-3.78,6.56-8.42
			S334.59,212.44,330.97,212.44z"></path><path class="st2" d="M355.66,271.8c-5.27,0-9.56-5.12-9.56-11.42s4.29-11.42,9.56-11.42s9.56,5.12,9.56,11.42
			S360.93,271.8,355.66,271.8z M355.66,251.96c-3.62,0-6.56,3.78-6.56,8.42s2.94,8.42,6.56,8.42s6.56-3.78,6.56-8.42
			S359.28,251.96,355.66,251.96z"></path></g></g></svg>