<svg width="992" height="281" viewBox="0 0 992 281" fill="none" xmlns="http://www.w3.org/2000/svg">
<g clip-path="url(#clip0_594_404)">
<path d="M95 239H0V180H83V179.949C88.0533 179.447 92 175.185 92 170C92 164.815 88.0533 160.552 83 160.05V160H0V122H92C93.0453 122 94.0529 121.839 95 121.541V239ZM95 102.458C94.0529 102.161 93.0452 102 92 102H0V42H95V102.458Z" fill="#3F51B5"/>
<path d="M98.5 42C152.9 42 197 86.1 197 140.5C197 194.9 152.9 239 98.5 239C58.1475 239 23.4627 214.735 8.24023 180H83V179.949C88.0533 179.447 92 175.185 92 170C92 164.815 88.0533 160.552 83 160.05V160H1.93164C0.66577 153.697 0 147.176 0 140.5C0 134.176 0.596659 127.992 1.73535 122H92C97.5228 122 102 117.523 102 112C102 106.477 97.5228 102 92 102H7.80859C22.7994 66.7318 57.7614 42 98.5 42Z" fill="#3F51B5"/>
<path d="M238.75 230V55H318.25C337.25 55 354 58.6667 368.5 66C383 73.1667 394.333 83.25 402.5 96.25C410.667 109.25 414.75 124.667 414.75 142.5C414.75 160.167 410.667 175.583 402.5 188.75C394.333 201.75 383 211.917 368.5 219.25C354 226.417 337.25 230 318.25 230H238.75ZM279.25 196.75H316.25C327.917 196.75 338 194.583 346.5 190.25C355.167 185.75 361.833 179.417 366.5 171.25C371.333 163.083 373.75 153.5 373.75 142.5C373.75 131.333 371.333 121.75 366.5 113.75C361.833 105.583 355.167 99.3333 346.5 95C338 90.5 327.917 88.25 316.25 88.25H279.25V196.75ZM509.293 232C493.96 232 480.46 229 468.793 223C457.293 217 448.376 208.833 442.043 198.5C435.71 188 432.543 176.083 432.543 162.75C432.543 149.25 435.626 137.333 441.793 127C448.126 116.5 456.71 108.333 467.543 102.5C478.376 96.5 490.626 93.5 504.293 93.5C517.46 93.5 529.293 96.3333 539.793 102C550.46 107.5 558.876 115.5 565.043 126C571.21 136.333 574.293 148.75 574.293 163.25C574.293 164.75 574.21 166.5 574.043 168.5C573.876 170.333 573.71 172.083 573.543 173.75H464.293V151H553.043L538.043 157.75C538.043 150.75 536.626 144.667 533.793 139.5C530.96 134.333 527.043 130.333 522.043 127.5C517.043 124.5 511.21 123 504.543 123C497.876 123 491.96 124.5 486.793 127.5C481.793 130.333 477.876 134.417 475.043 139.75C472.21 144.917 470.793 151.083 470.793 158.25V164.25C470.793 171.583 472.376 178.083 475.543 183.75C478.876 189.25 483.46 193.5 489.293 196.5C495.293 199.333 502.293 200.75 510.293 200.75C517.46 200.75 523.71 199.667 529.043 197.5C534.543 195.333 539.543 192.083 544.043 187.75L564.793 210.25C558.626 217.25 550.876 222.667 541.543 226.5C532.21 230.167 521.46 232 509.293 232ZM772.508 93.5C783.174 93.5 792.591 95.6667 800.758 100C809.091 104.167 815.591 110.667 820.258 119.5C825.091 128.167 827.508 139.333 827.508 153V230H788.508V159C788.508 148.167 786.258 140.167 781.758 135C777.258 129.833 770.924 127.25 762.758 127.25C757.091 127.25 752.008 128.583 747.508 131.25C743.008 133.75 739.508 137.583 737.008 142.75C734.508 147.917 733.258 154.5 733.258 162.5V230H694.258V159C694.258 148.167 692.008 140.167 687.508 135C683.174 129.833 676.924 127.25 668.758 127.25C663.091 127.25 658.008 128.583 653.508 131.25C649.008 133.75 645.508 137.583 643.008 142.75C640.508 147.917 639.258 154.5 639.258 162.5V230H600.258V95.5H637.508V132.25L630.508 121.5C635.174 112.333 641.758 105.417 650.258 100.75C658.924 95.9167 668.758 93.5 679.758 93.5C692.091 93.5 702.841 96.6667 712.008 103C721.341 109.167 727.508 118.667 730.508 131.5L716.758 127.75C721.258 117.25 728.424 108.917 738.258 102.75C748.258 96.5833 759.674 93.5 772.508 93.5ZM877.023 280.5C870.023 280.5 863.107 279.417 856.273 277.25C849.44 275.083 843.857 272.083 839.523 268.25L853.773 240.5C856.773 243.167 860.19 245.25 864.023 246.75C868.023 248.25 871.94 249 875.773 249C881.273 249 885.607 247.667 888.773 245C892.107 242.5 895.107 238.25 897.773 232.25L904.773 215.75L907.773 211.5L956.023 95.5H993.523L932.773 238.25C928.44 249.083 923.44 257.583 917.773 263.75C912.273 269.917 906.107 274.25 899.273 276.75C892.607 279.25 885.19 280.5 877.023 280.5ZM900.023 235.25L840.023 95.5H880.273L926.773 208L900.023 235.25Z" fill="#3F51B5"/>
</g>
<defs>
<clipPath id="clip0_594_404">
<rect width="992" height="281" fill="white"/>
</clipPath>
</defs>
</svg>
