<svg width="250" height="250" viewBox="0 0 250 250" fill="none" xmlns="http://www.w3.org/2000/svg">
<g clip-path="url(#clip0_596_635)">
<path d="M120.559 250H0V175.127H105.33V175.063C111.743 174.426 116.751 169.017 116.751 162.437C116.751 155.856 111.743 150.446 105.33 149.809V149.746H0V101.522H116.751C118.078 101.522 119.357 101.319 120.559 100.941V250ZM120.559 76.7227C119.456 76.3764 118.289 76.1772 117.079 76.1465L116.751 76.1426H0V0H120.559V76.7227Z" fill="white"/>
<path d="M125 0C194.036 0 250 55.9644 250 125C250 194.036 194.036 250 125 250C73.7912 250 29.7749 219.207 10.457 175.127H105.33V175.063C111.743 174.426 116.751 169.017 116.751 162.437C116.751 155.856 111.743 150.446 105.33 149.809V149.746H2.45117C0.844754 141.747 0 133.472 0 125C0 116.975 0.757063 109.127 2.20215 101.522H116.751C123.76 101.522 129.441 95.8407 129.441 88.832C129.441 81.9332 123.936 76.3204 117.079 76.1465L116.751 76.1426H9.91016C28.934 31.3859 73.3012 0 125 0Z" fill="white"/>
</g>
<defs>
<clipPath id="clip0_596_635">
<rect width="250" height="250" fill="white"/>
</clipPath>
</defs>
</svg>
