<svg width="1104" height="280" viewBox="0 0 1104 280" fill="none" xmlns="http://www.w3.org/2000/svg">
<g clip-path="url(#clip0_594_404)">
<path d="M120.559 265H0V190.127H105.33V190.063C111.743 189.426 116.751 184.017 116.751 177.437C116.751 170.856 111.743 165.446 105.33 164.809V164.746H0V116.522H116.751C118.078 116.522 119.357 116.319 120.559 115.941V265ZM120.559 91.7227C119.456 91.3764 118.289 91.1772 117.079 91.1465L116.751 91.1426H0V15H120.559V91.7227Z" fill="#3F51B5"/>
<path d="M125 15C194.036 15 250 70.9644 250 140C250 209.036 194.036 265 125 265C73.7912 265 29.7749 234.207 10.457 190.127H105.33V190.063C111.743 189.426 116.751 184.017 116.751 177.437C116.751 170.856 111.743 165.446 105.33 164.809V164.746H2.45117C0.844754 156.747 0 148.472 0 140C0 131.975 0.757063 124.127 2.20215 116.522H116.751C123.76 116.522 129.441 110.841 129.441 103.832C129.441 96.9332 123.936 91.3204 117.079 91.1465L116.751 91.1426H9.91016C28.934 46.3859 73.3012 15 125 15Z" fill="#3F51B5"/>
<path d="M350.75 229V54H430.25C449.25 54 466 57.6667 480.5 65C495 72.1667 506.333 82.25 514.5 95.25C522.667 108.25 526.75 123.667 526.75 141.5C526.75 159.167 522.667 174.583 514.5 187.75C506.333 200.75 495 210.917 480.5 218.25C466 225.417 449.25 229 430.25 229H350.75ZM391.25 195.75H428.25C439.917 195.75 450 193.583 458.5 189.25C467.167 184.75 473.833 178.417 478.5 170.25C483.333 162.083 485.75 152.5 485.75 141.5C485.75 130.333 483.333 120.75 478.5 112.75C473.833 104.583 467.167 98.3333 458.5 94C450 89.5 439.917 87.25 428.25 87.25H391.25V195.75ZM621.293 231C605.96 231 592.46 228 580.793 222C569.293 216 560.376 207.833 554.043 197.5C547.71 187 544.543 175.083 544.543 161.75C544.543 148.25 547.626 136.333 553.793 126C560.126 115.5 568.71 107.333 579.543 101.5C590.376 95.5 602.626 92.5 616.293 92.5C629.46 92.5 641.293 95.3333 651.793 101C662.46 106.5 670.876 114.5 677.043 125C683.21 135.333 686.293 147.75 686.293 162.25C686.293 163.75 686.21 165.5 686.043 167.5C685.876 169.333 685.71 171.083 685.543 172.75H576.293V150H665.043L650.043 156.75C650.043 149.75 648.626 143.667 645.793 138.5C642.96 133.333 639.043 129.333 634.043 126.5C629.043 123.5 623.21 122 616.543 122C609.876 122 603.96 123.5 598.793 126.5C593.793 129.333 589.876 133.417 587.043 138.75C584.21 143.917 582.793 150.083 582.793 157.25V163.25C582.793 170.583 584.376 177.083 587.543 182.75C590.876 188.25 595.46 192.5 601.293 195.5C607.293 198.333 614.293 199.75 622.293 199.75C629.46 199.75 635.71 198.667 641.043 196.5C646.543 194.333 651.543 191.083 656.043 186.75L676.793 209.25C670.626 216.25 662.876 221.667 653.543 225.5C644.21 229.167 633.46 231 621.293 231ZM884.508 92.5C895.174 92.5 904.591 94.6667 912.758 99C921.091 103.167 927.591 109.667 932.258 118.5C937.091 127.167 939.508 138.333 939.508 152V229H900.508V158C900.508 147.167 898.258 139.167 893.758 134C889.258 128.833 882.924 126.25 874.758 126.25C869.091 126.25 864.008 127.583 859.508 130.25C855.008 132.75 851.508 136.583 849.008 141.75C846.508 146.917 845.258 153.5 845.258 161.5V229H806.258V158C806.258 147.167 804.008 139.167 799.508 134C795.174 128.833 788.924 126.25 780.758 126.25C775.091 126.25 770.008 127.583 765.508 130.25C761.008 132.75 757.508 136.583 755.008 141.75C752.508 146.917 751.258 153.5 751.258 161.5V229H712.258V94.5H749.508V131.25L742.508 120.5C747.174 111.333 753.758 104.417 762.258 99.75C770.924 94.9167 780.758 92.5 791.758 92.5C804.091 92.5 814.841 95.6667 824.008 102C833.341 108.167 839.508 117.667 842.508 130.5L828.758 126.75C833.258 116.25 840.424 107.917 850.258 101.75C860.258 95.5833 871.674 92.5 884.508 92.5ZM989.023 279.5C982.023 279.5 975.107 278.417 968.273 276.25C961.44 274.083 955.857 271.083 951.523 267.25L965.773 239.5C968.773 242.167 972.19 244.25 976.023 245.75C980.023 247.25 983.94 248 987.773 248C993.273 248 997.607 246.667 1000.77 244C1004.11 241.5 1007.11 237.25 1009.77 231.25L1016.77 214.75L1019.77 210.5L1068.02 94.5H1105.52L1044.77 237.25C1040.44 248.083 1035.44 256.583 1029.77 262.75C1024.27 268.917 1018.11 273.25 1011.27 275.75C1004.61 278.25 997.19 279.5 989.023 279.5ZM1012.02 234.25L952.023 94.5H992.273L1038.77 207L1012.02 234.25Z" fill="#3F51B5"/>
</g>
<defs>
<clipPath id="clip0_594_404">
<rect width="1104" height="280" fill="white"/>
</clipPath>
</defs>
</svg>
