<svg width="225" height="225" viewBox="0 0 225 225" fill="none" xmlns="http://www.w3.org/2000/svg">
<path d="M5 20C5 11.7157 11.7157 5 20 5H120C175.228 5 220 49.7715 220 105V120C220 175.228 175.228 220 120 220H20C11.7157 220 5 213.284 5 205V20Z" fill="white"/>
<rect x="23" y="131.182" width="76.3638" height="18.1818" fill="white"/>
<ellipse cx="98.4546" cy="140.273" rx="9.09092" ry="9.09092" fill="white"/>
<path d="M110.273 202.091H23.9091V148.455H99.3641V148.409C103.958 147.953 107.546 144.078 107.546 139.364C107.546 134.65 103.958 130.774 99.3641 130.317V130.272H23.9091V95.7275H107.546C108.496 95.7275 109.412 95.5801 110.273 95.3096V202.091ZM110.273 77.9619C109.554 77.7361 108.797 77.5973 108.014 77.5576L107.546 77.5459H23.9091V23H110.273V77.9619Z" fill="#3F51B5"/>
<path d="M113.455 23C162.909 23.0002 203 63.0913 203 112.546C203 162 162.909 202.091 113.455 202.091C76.7709 202.091 45.2391 180.032 31.4003 148.455H99.3641V148.409C103.958 147.953 107.546 144.078 107.546 139.364C107.546 134.65 103.958 130.774 99.3641 130.317V130.272H25.6649C24.5142 124.542 23.9091 118.615 23.9091 112.546C23.9091 106.797 24.452 101.175 25.4872 95.7275H107.546C112.566 95.7274 116.636 91.6573 116.637 86.6367C116.637 81.7729 112.817 77.8012 108.014 77.5576L107.546 77.5459H31.0087C44.6367 45.4838 76.4198 23 113.455 23Z" fill="#3F51B5"/>
</svg>
